<svg width="36" height="37" viewBox="0 0 36 37" fill="none" xmlns="http://www.w3.org/2000/svg">
<g clip-path="url(#clip0_54_10)">
<path d="M18 37C27.9412 37 36 28.7173 36 18.5C36 8.28273 27.9412 0 18 0C8.05891 0 3.05176e-05 8.28273 3.05176e-05 18.5C3.05176e-05 28.7173 8.05891 37 18 37Z" fill="#3C5A9A"/>
<path d="M23.8528 5.67847H19.8654C17.4991 5.67847 14.8671 6.70134 14.8671 10.2266C14.8787 11.455 14.8671 12.6314 14.8671 13.9553H12.1297V18.4325H14.9518V31.3214H20.1377V18.3474H23.5606L23.8703 13.9428H20.0484C20.0484 13.9428 20.0569 11.9834 20.0484 11.4144C20.0484 10.0213 21.4588 10.1011 21.5436 10.1011C22.2148 10.1011 23.5198 10.1031 23.8548 10.1011V5.67847H23.8528V5.67847Z" fill="white"/>
</g>
<defs>
<clipPath id="clip0_54_10">
<rect width="36" height="37" fill="white"/>
</clipPath>
</defs>
</svg>
