<svg width="43" height="35" viewBox="0 0 43 35" fill="none" xmlns="http://www.w3.org/2000/svg">
<path d="M42.2028 4.42212C40.6515 5.10829 38.9841 5.57183 37.2344 5.78037C39.0203 4.71286 40.3922 3.02247 41.038 1.00811C39.3663 1.99679 37.515 2.71448 35.5444 3.1013C33.9666 1.42477 31.7183 0.377441 29.2301 0.377441C24.4528 0.377441 20.5793 4.23944 20.5793 9.00309C20.5793 9.67916 20.6558 10.3376 20.8034 10.9689C13.6137 10.6092 7.23957 7.17499 2.97285 1.95621C2.2282 3.23016 1.80149 4.71182 1.80149 6.29269C1.80149 9.28542 3.32872 11.9256 5.64993 13.4724C4.23191 13.4276 2.898 13.0396 1.7317 12.3936C1.73072 12.4295 1.73072 12.4657 1.73072 12.502C1.73072 16.6813 4.71267 20.1674 8.67011 20.9603C7.94423 21.1575 7.17998 21.2629 6.39106 21.2629C5.83363 21.2629 5.29181 21.2086 4.76348 21.1081C5.86442 24.535 9.05909 27.0288 12.8447 27.0982C9.88405 29.4119 6.1541 30.791 2.10093 30.791C1.40267 30.791 0.714111 30.75 0.0373535 30.6703C3.86577 33.1179 8.4129 34.546 13.2982 34.546C29.21 34.546 37.9115 21.4022 37.9115 10.0031C37.9115 9.62913 37.903 9.25724 37.8864 8.88704C39.5764 7.67111 41.0429 6.15204 42.2026 4.42212H42.2028Z" fill="#2AA9E0"/>
</svg>
