<svg width="652" height="619" viewBox="0 0 652 619" fill="none" xmlns="http://www.w3.org/2000/svg">
<path opacity="0.09" fill-rule="evenodd" clip-rule="evenodd" d="M202.96 544.034C187.774 557.708 164.379 556.482 150.706 541.296L47.7579 426.96C34.0845 411.774 35.3105 388.379 50.4964 374.706L164.832 271.758C180.018 258.084 203.413 259.311 217.086 274.496L320.034 388.832C333.708 404.018 332.482 427.413 317.296 441.086L202.96 544.034Z" fill="#8DF0AF"/>
<path opacity="0.06" fill-rule="evenodd" clip-rule="evenodd" d="M337.858 578.829C313.232 601.002 275.294 599.014 253.121 574.388L40.1479 337.858C17.9748 313.232 19.963 275.294 44.5887 253.121L281.119 40.1479C305.745 17.9748 343.683 19.963 365.856 44.5887L578.829 281.119C601.002 305.745 599.014 343.683 574.388 365.856L337.858 578.829Z" fill="#2196F3"/>
<g opacity="0.27">
<path d="M604.873 281.233C600.357 285.303 593.396 284.938 589.33 280.418L560.048 247.862C555.988 243.348 556.353 236.399 560.862 232.335L593.384 203.024C597.9 198.954 604.861 199.319 608.927 203.839L638.209 236.395C642.268 240.908 641.904 247.858 637.395 251.922L604.873 281.233Z" stroke="#BBDEFB" stroke-width="8"/>
</g>
</svg>
