<svg width="1009" height="1038" viewBox="0 0 1009 1038" fill="none" xmlns="http://www.w3.org/2000/svg">
<g opacity="0.3">
<path fill-rule="evenodd" clip-rule="evenodd" d="M635.51 891.865C591.46 939.317 517.708 943.268 468.841 900.793L105.877 585.307C50.3101 537.009 50.938 450.522 107.2 403.035L420.052 138.981C468.411 98.1643 540.156 101.917 583.994 147.555L883.064 458.908C927.126 504.78 927.742 577.062 884.468 623.678L635.51 891.865Z" fill="#B2EBF2"/>
<path fill-rule="evenodd" clip-rule="evenodd" d="M637.609 864.658C593.723 914.244 517.967 918.911 468.327 875.086L101.918 551.596C48.1562 504.131 47.7566 420.418 101.063 372.442L425.493 80.4572C474.739 36.1366 550.585 40.1114 594.928 89.3369L890.867 417.861C931.719 463.21 932.021 532 891.569 577.706L637.609 864.658Z" fill="#72F29E"/>
</g>
</svg>
