<svg width="619" height="619" viewBox="0 0 619 619" fill="none" xmlns="http://www.w3.org/2000/svg">
<path opacity="0.09" fill-rule="evenodd" clip-rule="evenodd" d="M202.96 544.034C187.774 557.708 164.379 556.482 150.706 541.296L47.7579 426.96C34.0845 411.774 35.3105 388.379 50.4964 374.706L164.832 271.758C180.018 258.084 203.413 259.311 217.086 274.496L320.034 388.832C333.708 404.018 332.482 427.413 317.296 441.086L202.96 544.034Z" fill="#8DF0AF"/>
<path opacity="0.06" fill-rule="evenodd" clip-rule="evenodd" d="M337.858 578.829C313.232 601.002 275.294 599.014 253.121 574.388L40.1479 337.858C17.9748 313.232 19.963 275.294 44.5887 253.121L281.119 40.1479C305.745 17.9748 343.683 19.963 365.856 44.5887L578.829 281.119C601.002 305.745 599.014 343.683 574.388 365.856L337.858 578.829Z" fill="#2196F3"/>
<g opacity="0.27">
<path d="M549.873 207.233C545.357 211.303 538.396 210.938 534.33 206.418L505.048 173.862C500.988 169.348 501.353 162.399 505.862 158.335L538.384 129.024C542.9 124.954 549.861 125.319 553.927 129.839L583.209 162.395C587.268 166.908 586.904 173.858 582.395 177.922L549.873 207.233Z" stroke="#BBDEFB" stroke-width="8"/>
</g>
</svg>
