<svg width="166" height="37" viewBox="0 0 166 37" fill="none" xmlns="http://www.w3.org/2000/svg">
<path d="M7.032 25.13C6.39067 25.13 5.93133 24.9913 5.654 24.714C5.37667 24.4193 5.238 23.8733 5.238 23.076C5.238 22.5387 5.29 21.854 5.394 21.022C5.51533 20.1727 5.706 19.0113 5.966 17.538C6.41667 14.8167 6.772 12.4593 7.032 10.466C7.188 9.218 7.266 8.178 7.266 7.346C7.266 6.566 6.98 6.176 6.408 6.176C5.95733 6.176 5.41133 6.41 4.77 6.878C4.146 7.32867 3.45267 8.05667 2.69 9.062C2.44733 9.39133 2.17867 9.556 1.884 9.556C1.64133 9.556 1.42467 9.44333 1.234 9.218C1.06067 8.97533 0.974 8.70667 0.974 8.412C0.974 8.13467 1.026 7.85733 1.13 7.58C1.25133 7.28533 1.442 6.956 1.702 6.592C2.534 5.43067 3.46133 4.538 4.484 3.914C5.50667 3.27267 6.52933 2.952 7.552 2.952C8.50533 2.952 9.23333 3.25533 9.736 3.862C10.256 4.46867 10.516 5.35267 10.516 6.514C10.516 6.982 10.4727 7.53667 10.386 8.178C10.2993 8.802 10.2213 9.31333 10.152 9.712C10.0827 10.1107 10.0307 10.388 9.996 10.544C10.984 7.71867 12.0933 5.75133 13.324 4.642C14.5547 3.51533 15.9067 2.952 17.38 2.952C18.5067 2.952 19.3907 3.35067 20.032 4.148C20.6907 4.94533 21.02 6.072 21.02 7.528C21.02 8.1 20.942 8.81067 20.786 9.66C21.6527 7.268 22.6667 5.552 23.828 4.512C24.9893 3.472 26.324 2.952 27.832 2.952C29.0453 2.952 29.9727 3.342 30.614 4.122C31.2727 4.902 31.602 5.994 31.602 7.398C31.602 8.16067 31.4893 9.088 31.264 10.18L29.678 17.616C29.5047 18.4827 29.418 19.228 29.418 19.852C29.418 20.58 29.5827 21.126 29.912 21.49C30.2587 21.854 30.7353 22.036 31.342 22.036C31.914 22.036 32.4687 21.8453 33.006 21.464C33.5607 21.0827 34.2107 20.45 34.956 19.566C35.164 19.3233 35.398 19.202 35.658 19.202C35.8833 19.202 36.0567 19.306 36.178 19.514C36.3167 19.722 36.386 20.008 36.386 20.372C36.386 21.048 36.2213 21.5853 35.892 21.984C34.9907 23.076 34.098 23.8733 33.214 24.376C32.33 24.8787 31.4027 25.13 30.432 25.13C28.9587 25.13 27.806 24.6967 26.974 23.83C26.142 22.946 25.726 21.7673 25.726 20.294C25.726 19.2713 25.934 17.7893 26.35 15.848L27.39 11.09C27.4247 10.934 27.4853 10.6567 27.572 10.258C27.6587 9.85933 27.728 9.48667 27.78 9.14C27.832 8.776 27.858 8.42067 27.858 8.074C27.858 7.46733 27.7367 7.01667 27.494 6.722C27.2687 6.41 26.9393 6.254 26.506 6.254C25.6913 6.254 24.8333 6.78267 23.932 7.84C23.048 8.88 22.1987 10.6133 21.384 13.04C20.5867 15.4667 19.9367 18.6213 19.434 22.504C19.3127 23.544 19.096 24.246 18.784 24.61C18.4893 24.9567 18.004 25.13 17.328 25.13C16.7387 25.13 16.3053 24.9913 16.028 24.714C15.768 24.4367 15.638 23.9167 15.638 23.154C15.638 22.4433 15.7333 21.516 15.924 20.372C16.1147 19.2107 16.3573 17.85 16.652 16.29C17.4493 12.0953 17.848 9.39133 17.848 8.178C17.848 7.51933 17.718 7.034 17.458 6.722C17.2153 6.41 16.8427 6.254 16.34 6.254C15.4907 6.254 14.6153 6.73933 13.714 7.71C12.8127 8.66333 11.9287 10.3707 11.062 12.832C10.2127 15.276 9.502 18.5867 8.93 22.764C8.80867 23.648 8.62667 24.2633 8.384 24.61C8.15867 24.9567 7.708 25.13 7.032 25.13ZM43.599 19.982C43.8243 19.982 43.9976 20.086 44.119 20.294C44.2576 20.502 44.327 20.788 44.327 21.152C44.327 21.776 44.1796 22.3133 43.885 22.764C43.3996 23.5093 42.7583 24.09 41.961 24.506C41.181 24.922 40.245 25.13 39.153 25.13C37.489 25.13 36.1976 24.636 35.279 23.648C34.3603 22.6427 33.901 21.2907 33.901 19.592C33.901 18.396 34.1523 17.2867 34.655 16.264C35.1576 15.224 35.851 14.4007 36.735 13.794C37.6363 13.1873 38.6503 12.884 39.777 12.884C40.7823 12.884 41.5883 13.1873 42.195 13.794C42.8016 14.3833 43.105 15.1893 43.105 16.212C43.105 17.408 42.6716 18.4393 41.805 19.306C40.9556 20.1553 39.4996 20.8313 37.437 21.334C37.853 22.1313 38.555 22.53 39.543 22.53C40.2536 22.53 40.8343 22.3653 41.285 22.036C41.753 21.7067 42.2903 21.152 42.897 20.372C43.105 20.112 43.339 19.982 43.599 19.982ZM39.335 15.432C38.6936 15.432 38.1476 15.8047 37.697 16.55C37.2636 17.2953 37.047 18.1967 37.047 19.254V19.306C38.0696 19.0633 38.8756 18.6993 39.465 18.214C40.0543 17.7287 40.349 17.1653 40.349 16.524C40.349 16.1947 40.2536 15.9347 40.063 15.744C39.8896 15.536 39.647 15.432 39.335 15.432ZM65.1213 17.018C65.3466 17.018 65.5199 17.1307 65.6413 17.356C65.7626 17.5813 65.8233 17.8673 65.8233 18.214C65.8233 19.046 65.5719 19.54 65.0693 19.696C64.0293 20.06 62.8853 20.268 61.6373 20.32C61.3079 21.776 60.6579 22.946 59.6873 23.83C58.7166 24.6967 57.6159 25.13 56.3853 25.13C55.3453 25.13 54.4526 24.8787 53.7073 24.376C52.9793 23.8733 52.4246 23.206 52.0433 22.374C51.6619 21.542 51.4713 20.6407 51.4713 19.67C51.4713 18.3527 51.7226 17.1827 52.2253 16.16C52.7279 15.12 53.4213 14.314 54.3053 13.742C55.1893 13.1527 56.1686 12.858 57.2433 12.858C58.5606 12.858 59.6179 13.3173 60.4153 14.236C61.2299 15.1373 61.7066 16.2553 61.8453 17.59C62.6599 17.538 63.6306 17.3647 64.7573 17.07C64.8959 17.0353 65.0173 17.018 65.1213 17.018ZM56.5933 22.374C57.1479 22.374 57.6246 22.1487 58.0233 21.698C58.4393 21.2473 58.7166 20.5973 58.8553 19.748C58.3179 19.384 57.9019 18.9073 57.6073 18.318C57.3299 17.7287 57.1913 17.1047 57.1913 16.446C57.1913 16.1687 57.2173 15.8913 57.2693 15.614H57.1393C56.4459 15.614 55.8653 15.952 55.3973 16.628C54.9466 17.2867 54.7213 18.2227 54.7213 19.436C54.7213 20.3893 54.9033 21.1173 55.2673 21.62C55.6486 22.1227 56.0906 22.374 56.5933 22.374ZM65.4378 25.13C64.7791 25.13 64.3111 24.7833 64.0338 24.09C63.7738 23.3967 63.6438 22.2873 63.6438 20.762C63.6438 18.5087 63.9644 16.368 64.6058 14.34C64.7618 13.8373 65.0131 13.4733 65.3598 13.248C65.7238 13.0053 66.2264 12.884 66.8678 12.884C67.2144 12.884 67.4571 12.9273 67.5958 13.014C67.7344 13.1007 67.8038 13.2653 67.8038 13.508C67.8038 13.7853 67.6738 14.4093 67.4138 15.38C67.2404 16.0733 67.1018 16.68 66.9978 17.2C66.8938 17.72 66.8071 18.3613 66.7378 19.124C67.3098 17.6333 67.9511 16.42 68.6618 15.484C69.3724 14.548 70.0658 13.8807 70.7418 13.482C71.4351 13.0833 72.0678 12.884 72.6398 12.884C73.1944 12.884 73.6104 13.0313 73.8878 13.326C74.1824 13.6033 74.3298 14.0193 74.3298 14.574C74.3298 15.0247 74.2344 15.874 74.0438 17.122C73.8704 18.1793 73.7318 19.1847 73.6278 20.138C73.5238 21.074 73.4718 22.1227 73.4718 23.284C73.4718 23.9427 73.3331 24.4193 73.0558 24.714C72.7958 24.9913 72.3624 25.13 71.7558 25.13C71.1838 25.13 70.7678 24.9827 70.5078 24.688C70.2478 24.3933 70.1178 23.9513 70.1178 23.362C70.1178 22.6687 70.2391 21.5247 70.4818 19.93C70.6898 18.5433 70.7938 17.6593 70.7938 17.278C70.7938 17.0007 70.6984 16.862 70.5078 16.862C70.2824 16.862 69.9618 17.1567 69.5458 17.746C69.1471 18.318 68.7311 19.0807 68.2978 20.034C67.8818 20.9873 67.5438 21.9927 67.2838 23.05C67.0931 23.8647 66.8678 24.4193 66.6078 24.714C66.3651 24.9913 65.9751 25.13 65.4378 25.13ZM105.01 19.254C105.236 19.254 105.409 19.3667 105.53 19.592C105.669 19.8 105.738 20.0687 105.738 20.398C105.738 20.7967 105.678 21.1087 105.556 21.334C105.435 21.5593 105.244 21.7587 104.984 21.932C103.962 22.608 102.332 23.7173 100.096 25.26C99.4204 28.848 98.545 31.6733 97.4704 33.736C96.3957 35.7987 95.035 36.83 93.3884 36.83C92.5044 36.83 91.785 36.5527 91.2304 35.998C90.6757 35.4607 90.3984 34.75 90.3984 33.866C90.3984 33.0513 90.5804 32.228 90.9444 31.396C91.3084 30.564 91.9844 29.602 92.9724 28.51C93.9777 27.418 95.3904 26.17 97.2104 24.766L97.2884 24.272C95.919 24.844 94.5757 25.13 93.2584 25.13C91.317 25.13 89.6097 24.7573 88.1364 24.012C86.663 23.2493 85.519 22.1747 84.7044 20.788C83.8897 19.4013 83.4824 17.7893 83.4824 15.952C83.4824 13.3867 83.9677 11.1247 84.9384 9.166C85.909 7.19 87.2437 5.66467 88.9424 4.59C90.6584 3.498 92.5737 2.952 94.6884 2.952C96.7164 2.952 98.233 3.42867 99.2384 4.382C100.261 5.318 100.772 6.566 100.772 8.126C100.772 9.14867 100.582 9.972 100.2 10.596C99.8364 11.2027 99.3077 11.506 98.6144 11.506C98.1464 11.506 97.765 11.3933 97.4704 11.168C97.193 10.9427 97.0544 10.6307 97.0544 10.232C97.0544 10.0587 97.089 9.764 97.1584 9.348C97.2624 8.86267 97.3144 8.48133 97.3144 8.204C97.3144 7.476 97.089 6.91267 96.6384 6.514C96.205 6.11533 95.4684 5.916 94.4284 5.916C93.163 5.916 91.9844 6.28 90.8924 7.008C89.8177 7.736 88.951 8.828 88.2924 10.284C87.6337 11.7227 87.3044 13.456 87.3044 15.484C87.3044 17.564 87.8677 19.176 88.9944 20.32C90.1384 21.4467 91.785 22.01 93.9344 22.01C95.1304 22.01 96.3784 21.7413 97.6784 21.204L98.0424 18.032H95.3904C94.905 18.032 94.5324 17.9193 94.2724 17.694C94.0124 17.4513 93.8824 17.0613 93.8824 16.524C93.8824 16.0387 94.0124 15.6573 94.2724 15.38C94.5324 15.1027 94.879 14.964 95.3124 14.964H100.174C100.556 14.964 100.868 15.094 101.11 15.354C101.37 15.5967 101.474 15.952 101.422 16.42C101.37 16.9747 101.197 18.2313 100.902 20.19L100.616 22.166C102.003 21.126 103.268 20.2247 104.412 19.462C104.638 19.3233 104.837 19.254 105.01 19.254ZM93.6744 34.308C94.125 34.308 94.619 33.7967 95.1564 32.774C95.6937 31.7513 96.1964 30.1047 96.6644 27.834C95.347 28.9607 94.3937 29.9747 93.8044 30.876C93.2324 31.7947 92.9464 32.6007 92.9464 33.294C92.9464 33.97 93.189 34.308 93.6744 34.308ZM107.267 11.168C106.539 11.168 105.993 11.0033 105.629 10.674C105.265 10.3273 105.083 9.85067 105.083 9.244C105.083 8.63733 105.317 8.13467 105.785 7.736C106.271 7.32 106.869 7.112 107.579 7.112C108.221 7.112 108.741 7.268 109.139 7.58C109.538 7.892 109.737 8.334 109.737 8.906C109.737 9.59933 109.512 10.154 109.061 10.57C108.611 10.9687 108.013 11.168 107.267 11.168ZM107.059 25.13C105.933 25.13 105.109 24.7313 104.589 23.934C104.087 23.1367 103.835 22.0793 103.835 20.762C103.835 19.982 103.931 18.9853 104.121 17.772C104.329 16.5413 104.589 15.3973 104.901 14.34C105.057 13.7853 105.265 13.404 105.525 13.196C105.785 12.988 106.201 12.884 106.773 12.884C107.657 12.884 108.099 13.1787 108.099 13.768C108.099 14.2013 107.935 15.2067 107.605 16.784C107.189 18.6907 106.981 19.982 106.981 20.658C106.981 21.178 107.051 21.5767 107.189 21.854C107.328 22.1313 107.562 22.27 107.891 22.27C108.203 22.27 108.593 22.0533 109.061 21.62C109.529 21.1867 110.153 20.502 110.933 19.566C111.141 19.3233 111.375 19.202 111.635 19.202C111.861 19.202 112.034 19.306 112.155 19.514C112.294 19.722 112.363 20.008 112.363 20.372C112.363 21.0653 112.199 21.6027 111.869 21.984C110.153 24.0813 108.55 25.13 107.059 25.13ZM121.856 19.202C122.081 19.202 122.254 19.306 122.376 19.514C122.514 19.722 122.584 20.008 122.584 20.372C122.584 21.0653 122.419 21.6027 122.09 21.984C121.344 22.9027 120.53 23.6567 119.646 24.246C118.762 24.8353 117.748 25.13 116.604 25.13C113.068 25.13 111.3 22.6427 111.3 17.668C111.3 16.9053 111.326 16.134 111.378 15.354H110.364C109.844 15.354 109.488 15.2587 109.298 15.068C109.124 14.8773 109.038 14.574 109.038 14.158C109.038 13.1873 109.428 12.702 110.208 12.702H111.69C111.984 10.7953 112.435 9.05333 113.042 7.476C113.648 5.89867 114.376 4.642 115.226 3.706C116.092 2.77 117.02 2.302 118.008 2.302C118.736 2.302 119.308 2.62267 119.724 3.264C120.14 3.90533 120.348 4.71133 120.348 5.682C120.348 8.36867 119.221 10.7087 116.968 12.702H119.88C120.157 12.702 120.356 12.7627 120.478 12.884C120.599 13.0053 120.66 13.2307 120.66 13.56C120.66 14.756 119.68 15.354 117.722 15.354H114.55C114.515 16.2207 114.498 16.8967 114.498 17.382C114.498 19.1847 114.706 20.45 115.122 21.178C115.555 21.906 116.231 22.27 117.15 22.27C117.895 22.27 118.554 22.0447 119.126 21.594C119.698 21.1433 120.374 20.4673 121.154 19.566C121.362 19.3233 121.596 19.202 121.856 19.202ZM117.306 4.798C117.046 4.798 116.751 5.12733 116.422 5.786C116.11 6.42733 115.806 7.32867 115.512 8.49C115.234 9.634 115 10.908 114.81 12.312C115.832 11.428 116.595 10.44 117.098 9.348C117.618 8.23867 117.878 7.23333 117.878 6.332C117.878 5.30933 117.687 4.798 117.306 4.798ZM144.543 19.202C144.768 19.202 144.941 19.306 145.063 19.514C145.201 19.722 145.271 20.008 145.271 20.372C145.271 21.048 145.106 21.5853 144.777 21.984C143.061 24.0813 141.232 25.13 139.291 25.13C137.609 25.13 136.266 24.48 135.261 23.18C134.255 21.88 133.753 20.0167 133.753 17.59C133.753 17.0007 133.779 16.4113 133.831 15.822C132.687 16.03 131.439 16.186 130.087 16.29C129.185 16.3593 128.57 16.4027 128.241 16.42C127.894 18.188 127.409 20.3547 126.785 22.92C126.421 24.428 125.727 25.182 124.705 25.182C123.595 25.182 123.041 24.6793 123.041 23.674C123.041 23.4487 123.084 23.1367 123.171 22.738C123.76 20.3633 124.228 18.3527 124.575 16.706L123.327 16.758C122.755 16.758 122.339 16.6627 122.079 16.472C121.819 16.264 121.689 15.9347 121.689 15.484C121.689 14.912 121.853 14.496 122.183 14.236C122.512 13.9587 123.058 13.8027 123.821 13.768L125.199 13.716C125.649 11.272 125.875 9.40867 125.875 8.126C125.875 7.31133 125.753 6.75667 125.511 6.462C125.268 6.16733 124.947 6.02 124.549 6.02C123.335 6.02 121.966 7.034 120.441 9.062C120.215 9.35667 119.964 9.504 119.687 9.504C119.444 9.504 119.236 9.39133 119.063 9.166C118.889 8.94067 118.803 8.65467 118.803 8.308C118.803 7.77067 119.019 7.19867 119.453 6.592C120.215 5.53467 121.177 4.668 122.339 3.992C123.5 3.29867 124.679 2.952 125.875 2.952C127.001 2.952 127.868 3.342 128.475 4.122C129.099 4.88467 129.411 6.08067 129.411 7.71C129.411 9.14867 129.203 11.0987 128.787 13.56L131.335 13.43C132.427 13.378 133.363 13.2913 134.143 13.17C134.455 11.2633 134.931 9.478 135.573 7.814C136.214 6.15 137.011 4.798 137.965 3.758C138.918 2.718 139.984 2.198 141.163 2.198C142.029 2.198 142.714 2.54467 143.217 3.238C143.719 3.914 143.971 4.80667 143.971 5.916C143.971 10.2147 141.778 13.196 137.393 14.86C137.341 15.5533 137.315 16.2727 137.315 17.018C137.315 18.838 137.54 20.1293 137.991 20.892C138.441 21.6547 139.074 22.036 139.889 22.036C140.599 22.036 141.249 21.854 141.839 21.49C142.428 21.1087 143.095 20.4673 143.841 19.566C144.049 19.3233 144.283 19.202 144.543 19.202ZM141.033 4.46C140.651 4.46 140.244 4.80667 139.811 5.5C139.395 6.19333 138.996 7.138 138.615 8.334C138.233 9.53 137.93 10.8387 137.705 12.26C139.091 11.688 140.114 10.8733 140.773 9.816C141.431 8.75867 141.761 7.398 141.761 5.734C141.761 5.33533 141.691 5.02333 141.553 4.798C141.414 4.57267 141.241 4.46 141.033 4.46ZM145.818 25.13C145.038 25.13 144.397 24.7747 143.894 24.064C143.409 23.336 143.166 22.4347 143.166 21.36C143.166 20.06 143.253 18.8727 143.426 17.798C143.599 16.706 143.885 15.5533 144.284 14.34C144.457 13.82 144.7 13.4473 145.012 13.222C145.324 12.9967 145.818 12.884 146.494 12.884C146.875 12.884 147.135 12.9447 147.274 13.066C147.43 13.1873 147.508 13.3693 147.508 13.612C147.508 13.7507 147.413 14.2187 147.222 15.016C147.049 15.6573 146.91 16.238 146.806 16.758C146.459 18.578 146.286 19.7913 146.286 20.398C146.286 20.762 146.329 21.022 146.416 21.178C146.503 21.3167 146.641 21.386 146.832 21.386C147.092 21.386 147.413 21.126 147.794 20.606C148.193 20.086 148.609 19.2973 149.042 18.24C149.493 17.1827 149.926 15.8827 150.342 14.34C150.481 13.82 150.689 13.4473 150.966 13.222C151.261 12.9967 151.694 12.884 152.266 12.884C152.665 12.884 152.942 12.936 153.098 13.04C153.254 13.1267 153.332 13.3 153.332 13.56C153.332 13.9933 153.115 15.1807 152.682 17.122C152.197 19.3407 151.954 20.71 151.954 21.23C151.954 21.5593 152.023 21.8193 152.162 22.01C152.301 22.1833 152.483 22.27 152.708 22.27C153.055 22.27 153.462 22.062 153.93 21.646C154.415 21.2127 155.057 20.5193 155.854 19.566C156.062 19.3233 156.296 19.202 156.556 19.202C156.781 19.202 156.955 19.306 157.076 19.514C157.215 19.722 157.284 20.008 157.284 20.372C157.284 21.0653 157.119 21.6027 156.79 21.984C156.045 22.9027 155.239 23.6567 154.372 24.246C153.523 24.8353 152.552 25.13 151.46 25.13C150.628 25.13 150.013 24.8093 149.614 24.168C149.233 23.5267 149.042 22.6253 149.042 21.464C148.747 22.6427 148.305 23.5527 147.716 24.194C147.127 24.818 146.494 25.13 145.818 25.13ZM160.324 25.13C158.59 25.13 157.325 24.4627 156.528 23.128C155.748 21.7933 155.358 19.8607 155.358 17.33C155.358 15.094 155.635 12.6673 156.19 10.05C156.744 7.41533 157.55 5.17933 158.608 3.342C159.682 1.48733 160.956 0.559999 162.43 0.559999C163.227 0.559999 163.868 0.906665 164.354 1.6C164.839 2.276 165.082 3.16 165.082 4.252C165.082 5.67333 164.813 7.086 164.276 8.49C163.738 9.894 162.846 11.3673 161.598 12.91C162.447 12.9793 163.184 13.2653 163.808 13.768C164.449 14.2707 164.934 14.9207 165.264 15.718C165.61 16.5153 165.784 17.382 165.784 18.318C165.784 19.618 165.524 20.788 165.004 21.828C164.501 22.868 163.834 23.6827 163.002 24.272C162.17 24.844 161.277 25.13 160.324 25.13ZM158.79 14.678C159.934 12.5807 160.844 10.7347 161.52 9.14C162.213 7.528 162.56 6.098 162.56 4.85C162.56 4.29533 162.49 3.87067 162.352 3.576C162.23 3.28133 162.057 3.134 161.832 3.134C161.485 3.134 161.104 3.654 160.688 4.694C160.289 5.71667 159.916 7.112 159.57 8.88C159.223 10.648 158.963 12.5807 158.79 14.678ZM160.428 22.322C161.017 22.322 161.511 22.0013 161.91 21.36C162.326 20.7187 162.534 19.7827 162.534 18.552C162.534 17.5987 162.36 16.8793 162.014 16.394C161.667 15.9087 161.251 15.666 160.766 15.666C160.159 15.666 159.648 15.978 159.232 16.602C158.816 17.226 158.608 18.136 158.608 19.332C158.608 20.372 158.781 21.1347 159.128 21.62C159.474 22.088 159.908 22.322 160.428 22.322Z" fill="#023047"/>
</svg>
