<svg width="216" height="198" viewBox="0 0 216 198" fill="none" xmlns="http://www.w3.org/2000/svg">
<path d="M107.909 197.5C167.233 197.5 215.318 149.095 215.318 89.3922C215.318 59.5255 203.283 37.2781 183.808 22.5113C164.349 7.75765 137.505 0.5 107.909 0.5C78.3132 0.5 51.469 7.75765 32.0109 22.5113C12.5356 37.2781 0.5 59.5255 0.5 89.3922C0.5 149.095 48.5857 197.5 107.909 197.5Z" fill="#1D2736" stroke="#8DF0AF"/>
<path d="M76.8357 73.1695C77.9403 73.1695 78.8357 74.0649 78.8357 75.1695V118.855C78.8357 119.96 77.9403 120.855 76.8357 120.855H74.4867C73.3821 120.855 72.4866 119.96 72.4866 118.855V94.5914C72.4866 92.4376 69.5497 91.8056 68.6637 93.7687L56.9709 119.678C56.6475 120.395 55.9342 120.855 55.1479 120.855H53.2646C52.4791 120.855 51.7662 120.395 51.4424 119.68L39.6796 93.6779C38.7923 91.7164 35.8574 92.3494 35.8574 94.5022V118.855C35.8574 119.96 34.962 120.855 33.8574 120.855H31.5084C30.4038 120.855 29.5084 119.96 29.5084 118.855V75.1695C29.5084 74.0649 30.4038 73.1695 31.5084 73.1695H35.117C35.8708 73.1695 36.5605 73.5933 36.9011 74.2657L51.3759 102.838C52.0295 104.129 53.7944 104.32 54.7092 103.199L62.9725 93.0798C63.082 92.9457 63.1737 92.798 63.2451 92.6403L71.5358 74.344C71.8599 73.6289 72.5724 73.1695 73.3575 73.1695H76.8357Z" fill="white"/>
<path d="M111.65 121.338C107.139 121.338 103.022 120.304 99.3012 118.237C95.5801 116.124 92.6265 113.206 90.4404 109.485C88.3008 105.718 87.231 101.492 87.231 96.8057C87.231 92.1198 88.3008 87.9163 90.4404 84.1952C92.6265 80.4281 95.5801 77.5109 99.3012 75.4436C103.022 73.3303 107.139 72.2737 111.65 72.2737C116.209 72.2737 120.348 73.3303 124.07 75.4436C127.791 77.5109 130.721 80.4051 132.861 84.1262C135 87.8474 136.07 92.0739 136.07 96.8057C136.07 101.538 135 105.764 132.861 109.485C130.721 113.206 127.791 116.124 124.07 118.237C120.348 120.304 116.209 121.338 111.65 121.338ZM111.65 115.894C115.046 115.894 118.093 115.113 120.79 113.551C123.535 111.989 117.512 109.761 119.046 106.867C120.628 103.972 129.581 100.619 129.581 96.8057C129.581 92.9467 128.791 89.5931 127.209 86.7448C125.674 83.8506 123.558 81.6225 120.86 80.0605C118.162 78.4986 115.092 77.7176 111.65 77.7176C108.208 77.7176 105.139 78.4986 102.441 80.0605C99.7431 81.6225 97.6035 83.8506 96.022 86.7448C94.4871 89.5931 93.7196 92.9467 93.7196 96.8057C93.7196 100.619 94.4871 103.972 96.022 106.867C97.6035 109.761 99.7431 111.989 102.441 113.551C105.185 115.113 108.255 115.894 111.65 115.894Z" fill="white"/>
<path d="M182.059 87.6407C181.29 87.6407 180.599 87.1946 180.216 86.5289C178.908 84.2608 177.15 82.4722 174.941 81.1631C172.383 79.6011 169.406 78.8202 166.011 78.8202C162.615 78.8202 159.545 79.6011 156.801 81.1631C154.103 82.6791 151.964 84.8842 150.382 87.7785C148.847 90.6268 148.08 93.9345 148.08 97.7015C148.08 101.469 148.847 104.776 150.382 107.625C151.964 110.473 154.103 112.678 156.801 114.24C159.545 115.756 162.615 116.514 166.011 116.514C170.755 116.514 171.871 113.114 174.941 110.312C177.503 107.974 181.117 106.339 182.541 103.085C183.018 101.996 182.067 100.94 180.879 100.94H165.708C164.604 100.94 163.708 100.045 163.708 98.9403V97.841C163.708 96.7364 164.604 95.841 165.708 95.841H187.872C188.976 95.841 189.872 96.7364 189.872 97.841V100.665C189.5 104.616 188.244 108.245 186.104 111.552C183.965 114.814 181.151 117.41 177.662 119.339C174.174 121.223 170.29 122.165 166.011 122.165C161.499 122.165 157.382 121.131 153.661 119.064C149.94 116.95 146.987 114.033 144.8 110.312C142.661 106.591 141.591 102.387 141.591 97.7015C141.591 93.0157 142.661 88.8121 144.8 85.091C146.987 81.3239 149.94 78.4067 153.661 76.3394C157.382 74.2261 161.499 73.1695 166.011 73.1695C171.174 73.1695 175.732 74.4329 179.685 76.9596C182.875 78.9743 185.37 81.6462 187.169 84.9753C187.84 86.2167 186.878 87.6407 185.467 87.6407H182.059Z" fill="white"/>
</svg>
