<svg width="610" height="135" viewBox="0 0 610 135" fill="none" xmlns="http://www.w3.org/2000/svg">
<path d="M23.272 91.48C20.904 91.48 19.208 90.968 18.184 89.944C17.16 88.856 16.648 86.84 16.648 83.896C16.648 81.912 16.84 79.384 17.224 76.312C17.672 73.176 18.376 68.888 19.336 63.448C21 53.4 22.312 44.696 23.272 37.336C23.848 32.728 24.136 28.888 24.136 25.816C24.136 22.936 23.08 21.496 20.968 21.496C19.304 21.496 17.288 22.36 14.92 24.088C12.616 25.752 10.056 28.44 7.24 32.152C6.344 33.368 5.352 33.976 4.264 33.976C3.368 33.976 2.568 33.56 1.864 32.728C1.224 31.832 0.904 30.84 0.904 29.752C0.904 28.728 1.096 27.704 1.48 26.68C1.928 25.592 2.632 24.376 3.592 23.032C6.664 18.744 10.088 15.448 13.864 13.144C17.64 10.776 21.416 9.592 25.192 9.592C28.712 9.592 31.4 10.712 33.256 12.952C35.176 15.192 36.136 18.456 36.136 22.744C36.136 24.472 35.976 26.52 35.656 28.888C35.336 31.192 35.048 33.08 34.792 34.552C34.536 36.024 34.344 37.048 34.216 37.624C37.864 27.192 41.96 19.928 46.504 15.832C51.048 11.672 56.04 9.592 61.48 9.592C65.64 9.592 68.904 11.064 71.272 14.008C73.704 16.952 74.92 21.112 74.92 26.488C74.92 28.6 74.632 31.224 74.056 34.36C77.256 25.528 81 19.192 85.288 15.352C89.576 11.512 94.504 9.592 100.072 9.592C104.552 9.592 107.976 11.032 110.344 13.912C112.776 16.792 113.992 20.824 113.992 26.008C113.992 28.824 113.576 32.248 112.744 36.28L106.888 63.736C106.248 66.936 105.928 69.688 105.928 71.992C105.928 74.68 106.536 76.696 107.752 78.04C109.032 79.384 110.792 80.056 113.032 80.056C115.144 80.056 117.192 79.352 119.176 77.944C121.224 76.536 123.624 74.2 126.376 70.936C127.144 70.04 128.008 69.592 128.968 69.592C129.8 69.592 130.44 69.976 130.888 70.744C131.4 71.512 131.656 72.568 131.656 73.912C131.656 76.408 131.048 78.392 129.832 79.864C126.504 83.896 123.208 86.84 119.944 88.696C116.68 90.552 113.256 91.48 109.672 91.48C104.232 91.48 99.976 89.88 96.904 86.68C93.832 83.416 92.296 79.064 92.296 73.624C92.296 69.848 93.064 64.376 94.6 57.208L98.44 39.64C98.568 39.064 98.792 38.04 99.112 36.568C99.432 35.096 99.688 33.72 99.88 32.44C100.072 31.096 100.168 29.784 100.168 28.504C100.168 26.264 99.72 24.6 98.824 23.512C97.992 22.36 96.776 21.784 95.176 21.784C92.168 21.784 89 23.736 85.672 27.64C82.408 31.48 79.272 37.88 76.264 46.84C73.32 55.8 70.92 67.448 69.064 81.784C68.616 85.624 67.816 88.216 66.664 89.56C65.576 90.84 63.784 91.48 61.288 91.48C59.112 91.48 57.512 90.968 56.488 89.944C55.528 88.92 55.048 87 55.048 84.184C55.048 81.56 55.4 78.136 56.104 73.912C56.808 69.624 57.704 64.6 58.792 58.84C61.736 43.352 63.208 33.368 63.208 28.888C63.208 26.456 62.728 24.664 61.768 23.512C60.872 22.36 59.496 21.784 57.64 21.784C54.504 21.784 51.272 23.576 47.944 27.16C44.616 30.68 41.352 36.984 38.152 46.072C35.016 55.096 32.392 67.32 30.28 82.744C29.832 86.008 29.16 88.28 28.264 89.56C27.432 90.84 25.768 91.48 23.272 91.48ZM158.289 72.472C159.121 72.472 159.761 72.856 160.209 73.624C160.721 74.392 160.977 75.448 160.977 76.792C160.977 79.096 160.433 81.08 159.345 82.744C157.553 85.496 155.185 87.64 152.241 89.176C149.361 90.712 145.905 91.48 141.873 91.48C135.729 91.48 130.961 89.656 127.569 86.008C124.177 82.296 122.48 77.304 122.48 71.032C122.48 66.616 123.409 62.52 125.265 58.744C127.121 54.904 129.681 51.864 132.945 49.624C136.273 47.384 140.017 46.264 144.177 46.264C147.889 46.264 150.865 47.384 153.105 49.624C155.345 51.8 156.465 54.776 156.465 58.552C156.465 62.968 154.865 66.776 151.665 69.976C148.529 73.112 143.153 75.608 135.537 77.464C137.073 80.408 139.665 81.88 143.312 81.88C145.937 81.88 148.081 81.272 149.745 80.056C151.473 78.84 153.457 76.792 155.697 73.912C156.465 72.952 157.329 72.472 158.289 72.472ZM142.545 55.672C140.177 55.672 138.161 57.048 136.497 59.8C134.897 62.552 134.097 65.88 134.097 69.784V69.976C137.873 69.08 140.849 67.736 143.025 65.944C145.201 64.152 146.289 62.072 146.289 59.704C146.289 58.488 145.937 57.528 145.233 56.824C144.593 56.056 143.697 55.672 142.545 55.672ZM237.756 61.528C238.588 61.528 239.228 61.944 239.676 62.776C240.124 63.608 240.348 64.664 240.348 65.944C240.348 69.016 239.42 70.84 237.564 71.416C233.724 72.76 229.5 73.528 224.892 73.72C223.676 79.096 221.276 83.416 217.692 86.68C214.108 89.88 210.044 91.48 205.5 91.48C201.66 91.48 198.364 90.552 195.612 88.696C192.924 86.84 190.876 84.376 189.468 81.304C188.06 78.232 187.355 74.904 187.355 71.32C187.355 66.456 188.284 62.136 190.14 58.36C191.996 54.52 194.556 51.544 197.82 49.432C201.084 47.256 204.7 46.168 208.668 46.168C213.532 46.168 217.436 47.864 220.38 51.256C223.388 54.584 225.148 58.712 225.66 63.64C228.668 63.448 232.252 62.808 236.412 61.72C236.924 61.592 237.372 61.528 237.756 61.528ZM206.268 81.304C208.316 81.304 210.076 80.472 211.548 78.808C213.084 77.144 214.108 74.744 214.62 71.608C212.636 70.264 211.1 68.504 210.012 66.328C208.988 64.152 208.476 61.848 208.476 59.416C208.476 58.392 208.572 57.368 208.764 56.344H208.284C205.724 56.344 203.58 57.592 201.852 60.088C200.188 62.52 199.356 65.976 199.356 70.456C199.356 73.976 200.028 76.664 201.372 78.52C202.78 80.376 204.412 81.304 206.268 81.304ZM238.924 91.48C236.492 91.48 234.764 90.2 233.74 87.64C232.78 85.08 232.3 80.984 232.3 75.352C232.3 67.032 233.484 59.128 235.852 51.64C236.428 49.784 237.356 48.44 238.636 47.608C239.98 46.712 241.836 46.264 244.204 46.264C245.484 46.264 246.38 46.424 246.892 46.744C247.404 47.064 247.66 47.672 247.66 48.568C247.66 49.592 247.18 51.896 246.22 55.48C245.58 58.04 245.068 60.28 244.684 62.2C244.3 64.12 243.98 66.488 243.724 69.304C245.836 63.8 248.204 59.32 250.828 55.864C253.452 52.408 256.012 49.944 258.508 48.472C261.068 47 263.404 46.264 265.516 46.264C267.564 46.264 269.1 46.808 270.124 47.896C271.212 48.92 271.756 50.456 271.756 52.504C271.756 54.168 271.404 57.304 270.7 61.912C270.06 65.816 269.548 69.528 269.164 73.048C268.78 76.504 268.588 80.376 268.588 84.664C268.588 87.096 268.076 88.856 267.052 89.944C266.092 90.968 264.492 91.48 262.252 91.48C260.14 91.48 258.604 90.936 257.644 89.848C256.684 88.76 256.204 87.128 256.204 84.952C256.204 82.392 256.652 78.168 257.548 72.28C258.316 67.16 258.7 63.896 258.7 62.488C258.7 61.464 258.348 60.952 257.644 60.952C256.812 60.952 255.628 62.04 254.092 64.216C252.62 66.328 251.084 69.144 249.484 72.664C247.948 76.184 246.7 79.896 245.74 83.8C245.036 86.808 244.204 88.856 243.244 89.944C242.348 90.968 240.908 91.48 238.924 91.48ZM385.038 69.784C385.87 69.784 386.51 70.2 386.958 71.032C387.47 71.8 387.726 72.792 387.726 74.008C387.726 75.48 387.502 76.632 387.054 77.464C386.606 78.296 385.902 79.032 384.942 79.672C381.166 82.168 375.15 86.264 366.894 91.96C364.398 105.208 361.166 115.64 357.198 123.256C353.23 130.872 348.206 134.68 342.126 134.68C338.862 134.68 336.206 133.656 334.158 131.608C332.11 129.624 331.086 127 331.086 123.736C331.086 120.728 331.758 117.688 333.102 114.616C334.446 111.544 336.942 107.992 340.59 103.96C344.302 99.928 349.518 95.32 356.238 90.136L356.526 88.312C351.47 90.424 346.51 91.48 341.646 91.48C334.478 91.48 328.174 90.104 322.734 87.352C317.294 84.536 313.07 80.568 310.062 75.448C307.054 70.328 305.55 64.376 305.55 57.592C305.55 48.12 307.342 39.768 310.926 32.536C314.51 25.24 319.438 19.608 325.71 15.64C332.046 11.608 339.118 9.592 346.926 9.592C354.414 9.592 360.014 11.352 363.726 14.872C367.502 18.328 369.39 22.936 369.39 28.696C369.39 32.472 368.686 35.512 367.278 37.816C365.934 40.056 363.982 41.176 361.422 41.176C359.694 41.176 358.286 40.76 357.198 39.928C356.174 39.096 355.662 37.944 355.662 36.472C355.662 35.832 355.79 34.744 356.046 33.208C356.43 31.416 356.622 30.008 356.622 28.984C356.622 26.296 355.79 24.216 354.126 22.744C352.526 21.272 349.806 20.536 345.966 20.536C341.294 20.536 336.942 21.88 332.91 24.568C328.942 27.256 325.742 31.288 323.31 36.664C320.878 41.976 319.662 48.376 319.662 55.864C319.662 63.544 321.742 69.496 325.902 73.72C330.126 77.88 336.206 79.96 344.142 79.96C348.558 79.96 353.166 78.968 357.966 76.984L359.31 65.272H349.518C347.726 65.272 346.35 64.856 345.39 64.024C344.43 63.128 343.95 61.688 343.95 59.704C343.95 57.912 344.43 56.504 345.39 55.48C346.35 54.456 347.63 53.944 349.23 53.944H367.182C368.59 53.944 369.742 54.424 370.638 55.384C371.598 56.28 371.982 57.592 371.79 59.32C371.598 61.368 370.958 66.008 369.87 73.24L368.814 80.536C373.934 76.696 378.606 73.368 382.83 70.552C383.662 70.04 384.398 69.784 385.038 69.784ZM343.182 125.368C344.846 125.368 346.67 123.48 348.654 119.704C350.638 115.928 352.494 109.848 354.222 101.464C349.358 105.624 345.838 109.368 343.662 112.696C341.55 116.088 340.494 119.064 340.494 121.624C340.494 124.12 341.39 125.368 343.182 125.368ZM393.372 39.928C390.684 39.928 388.668 39.32 387.324 38.104C385.98 36.824 385.308 35.064 385.308 32.824C385.308 30.584 386.172 28.728 387.9 27.256C389.692 25.72 391.9 24.952 394.524 24.952C396.892 24.952 398.812 25.528 400.284 26.68C401.756 27.832 402.492 29.464 402.492 31.576C402.492 34.136 401.66 36.184 399.996 37.72C398.332 39.192 396.124 39.928 393.372 39.928ZM392.604 91.48C388.444 91.48 385.404 90.008 383.484 87.064C381.628 84.12 380.7 80.216 380.7 75.352C380.7 72.472 381.052 68.792 381.756 64.312C382.524 59.768 383.484 55.544 384.636 51.64C385.212 49.592 385.98 48.184 386.94 47.416C387.9 46.648 389.436 46.264 391.548 46.264C394.812 46.264 396.444 47.352 396.444 49.528C396.444 51.128 395.836 54.84 394.62 60.664C393.084 67.704 392.316 72.472 392.316 74.968C392.316 76.888 392.572 78.36 393.084 79.384C393.596 80.408 394.46 80.92 395.676 80.92C396.828 80.92 398.268 80.12 399.996 78.52C401.724 76.92 404.028 74.392 406.908 70.936C407.676 70.04 408.54 69.592 409.5 69.592C410.332 69.592 410.972 69.976 411.42 70.744C411.932 71.512 412.188 72.568 412.188 73.912C412.188 76.472 411.58 78.456 410.364 79.864C404.028 87.608 398.108 91.48 392.604 91.48ZM447.237 69.592C448.069 69.592 448.709 69.976 449.156 70.744C449.669 71.512 449.925 72.568 449.925 73.912C449.925 76.472 449.317 78.456 448.101 79.864C445.349 83.256 442.341 86.04 439.077 88.216C435.813 90.392 432.069 91.48 427.845 91.48C414.789 91.48 408.261 82.296 408.261 63.928C408.261 61.112 408.357 58.264 408.549 55.384H404.805C402.885 55.384 401.573 55.032 400.869 54.328C400.229 53.624 399.909 52.504 399.909 50.968C399.909 47.384 401.349 45.592 404.229 45.592H409.701C410.789 38.552 412.453 32.12 414.693 26.296C416.933 20.472 419.621 15.832 422.757 12.376C425.957 8.92 429.381 7.192 433.029 7.192C435.717 7.192 437.829 8.376 439.365 10.744C440.901 13.112 441.669 16.088 441.669 19.672C441.669 29.592 437.509 38.232 429.189 45.592H439.941C440.965 45.592 441.701 45.816 442.149 46.264C442.597 46.712 442.821 47.544 442.821 48.76C442.821 53.176 439.205 55.384 431.973 55.384H420.261C420.133 58.584 420.069 61.08 420.069 62.872C420.069 69.528 420.837 74.2 422.373 76.888C423.973 79.576 426.469 80.92 429.861 80.92C432.613 80.92 435.045 80.088 437.157 78.424C439.269 76.76 441.765 74.264 444.645 70.936C445.413 70.04 446.277 69.592 447.237 69.592ZM430.437 16.408C429.477 16.408 428.389 17.624 427.173 20.056C426.021 22.424 424.901 25.752 423.812 30.04C422.789 34.264 421.925 38.968 421.221 44.152C424.997 40.888 427.813 37.24 429.669 33.208C431.589 29.112 432.549 25.4 432.549 22.072C432.549 18.296 431.845 16.408 430.437 16.408ZM531.004 69.592C531.836 69.592 532.476 69.976 532.924 70.744C533.436 71.512 533.692 72.568 533.692 73.912C533.692 76.408 533.084 78.392 531.868 79.864C525.532 87.608 518.78 91.48 511.612 91.48C505.404 91.48 500.444 89.08 496.732 84.28C493.02 79.48 491.164 72.6 491.164 63.64C491.164 61.464 491.26 59.288 491.452 57.112C487.228 57.88 482.62 58.456 477.628 58.84C474.3 59.096 472.028 59.256 470.812 59.32C469.532 65.848 467.74 73.848 465.436 83.32C464.092 88.888 461.532 91.672 457.756 91.672C453.66 91.672 451.612 89.816 451.612 86.104C451.612 85.272 451.772 84.12 452.092 82.648C454.268 73.88 455.996 66.456 457.276 60.376L452.668 60.568C450.556 60.568 449.02 60.216 448.06 59.512C447.1 58.744 446.62 57.528 446.62 55.864C446.62 53.752 447.228 52.216 448.444 51.256C449.66 50.232 451.676 49.656 454.492 49.528L459.58 49.336C461.244 40.312 462.076 33.432 462.076 28.696C462.076 25.688 461.628 23.64 460.732 22.552C459.836 21.464 458.652 20.92 457.18 20.92C452.7 20.92 447.644 24.664 442.012 32.152C441.18 33.24 440.252 33.784 439.228 33.784C438.332 33.784 437.564 33.368 436.924 32.536C436.284 31.704 435.964 30.648 435.964 29.368C435.964 27.384 436.764 25.272 438.364 23.032C441.18 19.128 444.732 15.928 449.02 13.432C453.308 10.872 457.66 9.592 462.076 9.592C466.236 9.592 469.436 11.032 471.676 13.912C473.98 16.728 475.132 21.144 475.132 27.16C475.132 32.472 474.364 39.672 472.828 48.76L482.236 48.28C486.268 48.088 489.724 47.768 492.604 47.32C493.756 40.28 495.516 33.688 497.884 27.544C500.252 21.4 503.196 16.408 506.716 12.568C510.236 8.728 514.172 6.808 518.524 6.808C521.724 6.808 524.252 8.088 526.108 10.648C527.964 13.144 528.892 16.44 528.892 20.536C528.892 36.408 520.796 47.416 504.604 53.56C504.412 56.12 504.316 58.776 504.316 61.528C504.316 68.248 505.148 73.016 506.812 75.832C508.476 78.648 510.812 80.056 513.82 80.056C516.444 80.056 518.844 79.384 521.02 78.04C523.196 76.632 525.66 74.264 528.412 70.936C529.18 70.04 530.044 69.592 531.004 69.592ZM518.044 15.16C516.636 15.16 515.132 16.44 513.532 19C511.996 21.56 510.524 25.048 509.116 29.464C507.708 33.88 506.588 38.712 505.756 43.96C510.876 41.848 514.652 38.84 517.084 34.936C519.516 31.032 520.732 26.008 520.732 19.864C520.732 18.392 520.476 17.24 519.964 16.408C519.452 15.576 518.812 15.16 518.044 15.16ZM535.713 91.48C532.833 91.48 530.465 90.168 528.609 87.544C526.817 84.856 525.921 81.528 525.921 77.56C525.921 72.76 526.241 68.376 526.881 64.408C527.521 60.376 528.577 56.12 530.049 51.64C530.689 49.72 531.585 48.344 532.737 47.512C533.889 46.68 535.713 46.264 538.209 46.264C539.617 46.264 540.577 46.488 541.089 46.936C541.665 47.384 541.953 48.056 541.953 48.952C541.953 49.464 541.601 51.192 540.897 54.136C540.257 56.504 539.745 58.648 539.361 60.568C538.081 67.288 537.441 71.768 537.441 74.008C537.441 75.352 537.601 76.312 537.921 76.888C538.241 77.4 538.753 77.656 539.457 77.656C540.417 77.656 541.601 76.696 543.009 74.776C544.481 72.856 546.017 69.944 547.617 66.04C549.281 62.136 550.881 57.336 552.417 51.64C552.929 49.72 553.697 48.344 554.721 47.512C555.809 46.68 557.409 46.264 559.521 46.264C560.993 46.264 562.017 46.456 562.593 46.84C563.169 47.16 563.457 47.8 563.457 48.76C563.457 50.36 562.657 54.744 561.057 61.912C559.265 70.104 558.369 75.16 558.369 77.08C558.369 78.296 558.625 79.256 559.137 79.96C559.649 80.6 560.321 80.92 561.153 80.92C562.433 80.92 563.937 80.152 565.665 78.616C567.457 77.016 569.825 74.456 572.769 70.936C573.537 70.04 574.401 69.592 575.361 69.592C576.193 69.592 576.833 69.976 577.281 70.744C577.793 71.512 578.049 72.568 578.049 73.912C578.049 76.472 577.441 78.456 576.225 79.864C573.473 83.256 570.497 86.04 567.297 88.216C564.161 90.392 560.577 91.48 556.545 91.48C553.473 91.48 551.201 90.296 549.729 87.928C548.321 85.56 547.617 82.232 547.617 77.944C546.529 82.296 544.897 85.656 542.721 88.024C540.545 90.328 538.209 91.48 535.713 91.48ZM589.272 91.48C582.872 91.48 578.2 89.016 575.256 84.088C572.376 79.16 570.936 72.024 570.936 62.68C570.936 54.424 571.96 45.464 574.008 35.8C576.056 26.072 579.032 17.816 582.936 11.032C586.904 4.18399 591.608 0.759995 597.048 0.759995C599.992 0.759995 602.36 2.04 604.152 4.6C605.944 7.09599 606.84 10.36 606.84 14.392C606.84 19.64 605.848 24.856 603.864 30.04C601.88 35.224 598.584 40.664 593.976 46.36C597.112 46.616 599.832 47.672 602.136 49.528C604.504 51.384 606.296 53.784 607.512 56.728C608.792 59.672 609.432 62.872 609.432 66.328C609.432 71.128 608.472 75.448 606.552 79.288C604.696 83.128 602.232 86.136 599.16 88.312C596.088 90.424 592.792 91.48 589.272 91.48ZM583.608 52.888C587.832 45.144 591.192 38.328 593.688 32.44C596.248 26.488 597.528 21.208 597.528 16.6C597.528 14.552 597.272 12.984 596.76 11.896C596.312 10.808 595.672 10.264 594.84 10.264C593.56 10.264 592.152 12.184 590.616 16.024C589.144 19.8 587.768 24.952 586.488 31.48C585.208 38.008 584.248 45.144 583.608 52.888ZM589.656 81.112C591.832 81.112 593.656 79.928 595.128 77.56C596.664 75.192 597.432 71.736 597.432 67.192C597.432 63.672 596.792 61.016 595.512 59.224C594.232 57.432 592.696 56.536 590.904 56.536C588.664 56.536 586.776 57.688 585.24 59.992C583.704 62.296 582.936 65.656 582.936 70.072C582.936 73.912 583.576 76.728 584.856 78.52C586.136 80.248 587.736 81.112 589.656 81.112Z" fill="#1D2736"/>
</svg>
