<svg width="74" height="68" viewBox="0 0 74 68" fill="none" xmlns="http://www.w3.org/2000/svg">
<path d="M74 30.5915C74 51.1596 57.4345 67.8333 37 67.8333C16.5655 67.8333 0 51.1596 0 30.5915C0 10.0234 16.5655 0 37 0C57.4345 0 74 10.0234 74 30.5915Z" fill="url(#paint0_linear_194_512)"/>
<path d="M74 30.5915C74 51.1596 57.4345 67.8333 37 67.8333C16.5655 67.8333 0 51.1596 0 30.5915C0 10.0234 16.5655 0 37 0C57.4345 0 74 10.0234 74 30.5915Z" stroke="#023047"/>
<path d="M25.5138 24.9767C26.3003 24.9767 26.9379 25.6143 26.9379 26.4008V40.3815C26.9379 40.9883 26.446 41.4802 25.8392 41.4802V41.4802C25.2324 41.4802 24.7405 40.9883 24.7405 40.3815V38.4678C24.7405 36.314 21.8035 35.6819 20.9176 37.6451L19.5048 40.7756C19.3112 41.2045 18.8843 41.4802 18.4137 41.4802V41.4802C17.9435 41.4802 17.5169 41.2049 17.3231 40.7765L15.8858 37.5993C14.9984 35.6378 12.0636 36.2708 12.0636 38.4237V40.3815C12.0636 40.9883 11.5717 41.4802 10.9649 41.4802V41.4802C10.3581 41.4802 9.86621 40.9883 9.86621 40.3815V26.4425C9.86621 25.6329 10.5225 24.9767 11.332 24.9767V24.9767C11.8844 24.9767 12.3899 25.2873 12.6396 25.7801L16.526 33.4516C17.1796 34.7419 18.9444 34.9331 19.8592 33.8128L21.3399 31.9995C21.4494 31.8654 21.541 31.7177 21.6125 31.56L24.2167 25.813C24.4474 25.3038 24.9547 24.9767 25.5138 24.9767V24.9767Z" fill="white"/>
<path d="M38.2947 41.6471C36.7332 41.6471 35.3085 41.2894 34.0207 40.5739C32.7329 39.8426 31.7107 38.833 30.9541 37.5451C30.2136 36.2414 29.8434 34.7786 29.8434 33.1569C29.8434 31.5352 30.2136 30.0804 30.9541 28.7925C31.7107 27.4888 32.7329 26.4792 34.0207 25.7637C35.3085 25.0323 36.7332 24.6667 38.2947 24.6667C39.8722 24.6667 41.3049 25.0323 42.5928 25.7637C43.8806 26.4792 44.8947 27.4808 45.6352 28.7687C46.3757 30.0565 46.746 31.5193 46.746 33.1569C46.746 34.7945 46.3757 36.2573 45.6352 37.5451C44.8947 38.833 43.8806 39.8426 42.5928 40.5739C41.3049 41.2894 39.8722 41.6471 38.2947 41.6471ZM38.2947 39.7631C39.4698 39.7631 40.5242 39.4928 41.4579 38.9522C42.4076 38.4116 40.3231 37.6405 40.8543 36.6388C41.4017 35.6372 44.5003 34.4765 44.5003 33.1569C44.5003 31.8214 44.2267 30.6607 43.6794 29.6749C43.1481 28.6733 42.4157 27.9022 41.482 27.3616C40.5484 26.821 39.4859 26.5507 38.2947 26.5507C37.1034 26.5507 36.041 26.821 35.1073 27.3616C34.1737 27.9022 33.4332 28.6733 32.8858 29.6749C32.3546 30.6607 32.089 31.8214 32.089 33.1569C32.089 34.4765 32.3546 35.6372 32.8858 36.6388C33.4332 37.6405 34.1737 38.4116 35.1073 38.9522C36.0571 39.4928 37.1195 39.7631 38.2947 39.7631Z" fill="white"/>
<path d="M63.0154 29.985C62.5335 29.985 62.1052 29.7012 61.8383 29.3C61.4096 28.6558 60.8631 28.1368 60.1988 27.7432C59.3135 27.2026 58.2832 26.9323 57.1081 26.9323C55.9329 26.9323 54.8705 27.2026 53.9207 27.7432C52.9871 28.2679 52.2466 29.031 51.6992 30.0327C51.168 31.0184 50.9024 32.1632 50.9024 33.4669C50.9024 34.7707 51.168 35.9154 51.6992 36.9012C52.2466 37.8869 52.9871 38.6501 53.9207 39.1907C54.8705 39.7154 55.9329 39.9777 57.1081 39.9777C58.75 39.9777 59.1364 38.8012 60.1988 37.8313C60.7293 37.347 61.3902 36.95 61.9411 36.4679C62.8358 35.6851 61.9872 34.5878 60.7984 34.5878H57.1936C56.7063 34.5878 56.3112 34.1928 56.3112 33.7054V33.7054C56.3112 33.2181 56.7063 32.823 57.1936 32.823H63.6968C64.6188 32.823 65.3662 33.5704 65.3662 34.4924V34.4924C65.2374 35.8598 64.8028 37.1158 64.0623 38.2606C63.3218 39.3894 62.3479 40.2877 61.1406 40.9555C59.9332 41.6074 58.5891 41.9333 57.1081 41.9333C55.5466 41.9333 54.1219 41.5756 52.8341 40.8601C51.5463 40.1288 50.5241 39.1191 49.7675 37.8313C49.027 36.5435 48.6568 35.0887 48.6568 33.4669C48.6568 31.8452 49.027 30.3904 49.7675 29.1026C50.5241 27.7988 51.5463 26.7892 52.8341 26.0737C54.1219 25.3424 55.5466 24.9767 57.1081 24.9767C58.8949 24.9767 60.4725 25.4139 61.8408 26.2884C62.7097 26.8373 63.4296 27.5271 64.0005 28.3578C64.5017 29.0871 63.9004 29.985 63.0154 29.985V29.985Z" fill="white"/>
<defs>
<linearGradient id="paint0_linear_194_512" x1="37" y1="0" x2="37" y2="67.8333" gradientUnits="userSpaceOnUse">
<stop stop-color="#794D9A"/>
<stop offset="1" stop-color="#2F0053"/>
</linearGradient>
</defs>
</svg>
