<svg width="174" height="162" viewBox="0 0 174 162" fill="none" xmlns="http://www.w3.org/2000/svg">
<path d="M173.5 75.2143C173.5 122.867 134.774 161.5 87 161.5C39.2262 161.5 0.5 122.867 0.5 75.2143C0.5 51.3983 10.171 32.7376 25.7973 20.021C41.4343 7.29577 63.0654 0.5 87 0.5C110.935 0.5 132.566 7.29577 148.203 20.021C163.829 32.7376 173.5 51.3983 173.5 75.2143Z" fill="#1D2736" stroke="#72F29E"/>
<path d="M48.136 64.432C49.2406 64.432 50.136 65.3274 50.136 66.432V95.792C50.136 96.8966 49.2406 97.792 48.136 97.792H46.664C45.5594 97.792 44.664 96.8966 44.664 95.792V84.3504C44.664 82.1911 41.7155 81.5642 40.837 83.5367L35.0164 96.6057C34.695 97.3272 33.9792 97.792 33.1894 97.792H31.9921C31.2036 97.792 30.4887 97.3287 30.1666 96.6089L24.2976 83.4931C23.4164 81.524 20.472 82.1527 20.472 84.31V95.792C20.472 96.8966 19.5766 97.792 18.472 97.792H17C15.8954 97.792 15 96.8966 15 95.792V66.432C15 65.3274 15.8954 64.432 17 64.432H19.6402C20.4121 64.432 21.1151 64.8763 21.4465 65.5735L30.4732 84.566C31.1204 85.9276 32.9842 86.1109 33.8842 84.9013L37.7565 79.6969C37.8518 79.5688 37.9315 79.4297 37.9937 79.2826L43.7634 65.6524C44.0766 64.9126 44.8019 64.432 45.6052 64.432H48.136Z" fill="white"/>
<path d="M72.5441 98.128C69.4401 98.128 66.5761 97.408 63.9521 95.968C61.3601 94.496 59.2961 92.464 57.7601 89.872C56.2561 87.248 55.5041 84.304 55.5041 81.04C55.5041 77.776 56.2561 74.848 57.7601 72.256C59.2961 69.664 61.3601 67.648 63.9521 66.208C66.5761 64.736 69.4401 64 72.5441 64C75.6801 64 78.5441 64.736 81.1361 66.208C83.7601 67.648 85.8241 69.664 87.3281 72.256C88.8321 74.848 89.5841 77.776 89.5841 81.04C89.5841 84.304 88.8321 87.248 87.3281 89.872C85.8241 92.464 83.7601 94.496 81.1361 95.968C78.5441 97.408 75.6801 98.128 72.5441 98.128ZM72.5441 93.376C74.7521 93.376 76.7201 92.88 78.4481 91.888C80.1761 90.864 81.5201 89.424 82.4801 87.568C83.4721 85.68 81.1361 83.504 81.1361 81.04C81.1361 78.576 83.4721 76.416 82.4801 74.56C81.5201 72.704 80.1761 71.28 78.4481 70.288C76.7201 69.296 74.7521 68.8 72.5441 68.8C70.3361 68.8 68.3681 69.296 66.6401 70.288C64.9121 71.28 63.5521 72.704 62.5601 74.56C61.6001 76.416 61.1201 78.576 61.1201 81.04C61.1201 83.504 61.6001 85.68 62.5601 87.568C63.5521 89.424 64.9121 90.864 66.6401 91.888C68.3681 92.88 70.3361 93.376 72.5441 93.376Z" fill="white"/>
<path d="M120.328 74.032C119.581 74.032 118.912 73.6054 118.49 72.9892C117.702 71.8365 116.709 70.936 115.513 70.288C113.977 69.424 112.201 68.992 110.185 68.992C107.977 68.992 106.009 69.488 104.281 70.48C102.553 71.472 101.193 72.88 100.201 74.704C99.2408 76.528 98.7607 78.64 98.7607 81.04C98.7607 83.44 99.2408 85.568 100.201 87.424C101.193 89.248 102.553 90.656 104.281 91.648C106.009 92.64 107.977 93.136 110.185 93.136C113.161 93.136 115.577 92.304 117.433 90.64C118.779 89.4335 117.954 88.9251 117.558 87.6511C117.244 86.6427 116.628 85.6225 115.594 85.4049L109.901 84.2063C108.975 84.0115 108.313 83.195 108.313 82.2492V81.504C108.313 80.3994 109.208 79.504 110.313 79.504H124.697C125.801 79.504 126.697 80.3994 126.697 81.504V83.776C126.345 86.368 125.417 88.752 123.913 90.928C122.441 93.104 120.505 94.848 118.105 96.16C115.737 97.44 113.097 98.08 110.185 98.08C107.049 98.08 104.185 97.36 101.593 95.92C99.0008 94.448 96.9367 92.416 95.4007 89.824C93.8967 87.232 93.1448 84.304 93.1448 81.04C93.1448 77.776 93.8967 74.848 95.4007 72.256C96.9367 69.664 99.0008 67.648 101.593 66.208C104.217 64.736 107.081 64 110.185 64C113.737 64 116.889 64.88 119.641 66.64C121.61 67.8621 123.195 69.4524 124.395 71.4108C125.131 72.6107 124.17 74.032 122.762 74.032H120.328Z" fill="white"/>
<path d="M156.734 64.432C157.838 64.432 158.734 65.3274 158.734 66.432V95.792C158.734 96.8966 157.838 97.792 156.734 97.792H155.262C154.157 97.792 153.262 96.8966 153.262 95.792V87.9452C153.262 87.6034 153.174 87.2674 153.007 86.9691L151.473 84.224C151.119 83.5917 150.451 83.2 149.727 83.2H139.566C138.461 83.2 137.566 84.0954 137.566 85.2V95.792C137.566 96.8966 136.67 97.792 135.566 97.792H134.094C132.989 97.792 132.094 96.8966 132.094 95.792V66.432C132.094 65.3274 132.989 64.432 134.094 64.432H135.566C136.67 64.432 137.566 65.3274 137.566 66.432V76.736C137.566 77.8406 138.461 78.736 139.566 78.736H151.262C152.366 78.736 153.262 77.8406 153.262 76.736V66.432C153.262 65.3274 154.157 64.432 155.262 64.432H156.734Z" fill="white"/>
</svg>
