<svg width="78" height="72" viewBox="0 0 78 72" fill="none" xmlns="http://www.w3.org/2000/svg">
<path d="M39 70.8333C59.993 70.8333 77 53.7057 77 32.5915C77 22.0044 72.7199 14.0576 65.7671 8.78587C58.8488 3.54017 49.365 1 39 1C28.635 1 19.1512 3.54017 12.2329 8.78587C5.28012 14.0576 1 22.0044 1 32.5915C1 53.7057 18.007 70.8333 39 70.8333Z" fill="#1D2736" stroke="#00BCD4" stroke-width="2"/>
<path d="M27.5143 26.9767C28.3008 26.9767 28.9383 27.6143 28.9383 28.4008V42.3815C28.9383 42.9883 28.4464 43.4802 27.8397 43.4802V43.4802C27.2329 43.4802 26.741 42.9883 26.741 42.3815V40.4678C26.741 38.314 23.804 37.6819 22.918 39.6451L21.5053 42.7756C21.3117 43.2045 20.8848 43.4802 20.4142 43.4802V43.4802C19.944 43.4802 19.5174 43.2049 19.3236 42.7765L17.8863 39.5993C16.9989 37.6378 14.064 38.2708 14.064 40.4237V42.3815C14.064 42.9883 13.5721 43.4802 12.9654 43.4802V43.4802C12.3586 43.4802 11.8667 42.9883 11.8667 42.3815V28.4425C11.8667 27.6329 12.523 26.9767 13.3325 26.9767V26.9767C13.8849 26.9767 14.3904 27.2873 14.6401 27.7801L18.5265 35.4516C19.1801 36.7419 20.9449 36.9331 21.8597 35.8128L23.3404 33.9995C23.4499 33.8654 23.5415 33.7177 23.613 33.56L26.2172 27.813C26.4479 27.3038 26.9552 26.9767 27.5143 26.9767V26.9767Z" fill="white"/>
<path d="M40.2952 43.6471C38.7337 43.6471 37.309 43.2894 36.0212 42.5739C34.7334 41.8426 33.7112 40.833 32.9546 39.5451C32.2141 38.2414 31.8439 36.7786 31.8439 35.1569C31.8439 33.5352 32.2141 32.0804 32.9546 30.7925C33.7112 29.4888 34.7334 28.4792 36.0212 27.7637C37.309 27.0323 38.7337 26.6667 40.2952 26.6667C41.8727 26.6667 43.3054 27.0323 44.5933 27.7637C45.8811 28.4792 46.8952 29.4808 47.6357 30.7687C48.3762 32.0565 48.7465 33.5193 48.7465 35.1569C48.7465 36.7945 48.3762 38.2573 47.6357 39.5451C46.8952 40.833 45.8811 41.8426 44.5933 42.5739C43.3054 43.2894 41.8727 43.6471 40.2952 43.6471ZM40.2952 41.7631C41.4703 41.7631 42.5247 41.4928 43.4584 40.9522C44.4081 40.4116 42.3236 39.6405 42.8548 38.6388C43.4021 37.6372 46.5008 36.4765 46.5008 35.1569C46.5008 33.8214 46.2272 32.6607 45.6799 31.6749C45.1486 30.6733 44.4162 29.9022 43.4825 29.3616C42.5488 28.821 41.4864 28.5507 40.2952 28.5507C39.1039 28.5507 38.0415 28.821 37.1078 29.3616C36.1741 29.9022 35.4336 30.6733 34.8863 31.6749C34.3551 32.6607 34.0895 33.8214 34.0895 35.1569C34.0895 36.4765 34.3551 37.6372 34.8863 38.6388C35.4336 39.6405 36.1741 40.4116 37.1078 40.9522C38.0576 41.4928 39.12 41.7631 40.2952 41.7631Z" fill="white"/>
<path d="M65.0159 31.985C64.534 31.985 64.1057 31.7012 63.8388 31.3C63.4101 30.6558 62.8636 30.1368 62.1993 29.7432C61.3139 29.2026 60.2837 28.9323 59.1086 28.9323C57.9334 28.9323 56.871 29.2026 55.9212 29.7432C54.9875 30.2679 54.247 31.031 53.6997 32.0327C53.1685 33.0184 52.9029 34.1632 52.9029 35.4669C52.9029 36.7707 53.1685 37.9154 53.6997 38.9012C54.247 39.8869 54.9875 40.6501 55.9212 41.1907C56.871 41.7154 57.9334 41.9777 59.1086 41.9777C60.7505 41.9777 61.1369 40.8012 62.1993 39.8313C62.7298 39.347 63.3907 38.95 63.9416 38.4679C64.8363 37.6851 63.9877 36.5878 62.7989 36.5878H59.1941C58.7068 36.5878 58.3117 36.1928 58.3117 35.7054V35.7054C58.3117 35.2181 58.7068 34.823 59.1941 34.823H65.6973C66.6193 34.823 67.3667 35.5704 67.3667 36.4924V36.4924C67.2379 37.8598 66.8033 39.1158 66.0628 40.2606C65.3223 41.3894 64.3484 42.2877 63.141 42.9555C61.9337 43.6074 60.5896 43.9333 59.1086 43.9333C57.5471 43.9333 56.1224 43.5756 54.8346 42.8601C53.5468 42.1288 52.5246 41.1191 51.768 39.8313C51.0275 38.5435 50.6573 37.0887 50.6573 35.4669C50.6573 33.8452 51.0275 32.3904 51.768 31.1026C52.5246 29.7988 53.5468 28.7892 54.8346 28.0737C56.1224 27.3424 57.5471 26.9767 59.1086 26.9767C60.8954 26.9767 62.473 27.4139 63.8413 28.2884C64.7102 28.8373 65.4301 29.5271 66.001 30.3578C66.5022 31.0871 65.9008 31.985 65.0159 31.985V31.985Z" fill="white"/>
</svg>
