<svg width="2869" height="152" viewBox="0 0 2869 152" fill="none" xmlns="http://www.w3.org/2000/svg">
<path opacity="0.05" fill-rule="evenodd" clip-rule="evenodd" d="M1698.97 99.377C1686.67 110.409 1667.77 109.418 1656.69 97.161L1648.2 87.7671C1637.05 75.442 1638.05 56.4092 1650.42 45.3162L1659.87 36.8415C1672.17 25.8096 1691.08 26.8004 1702.16 39.0576L1710.65 48.4514C1721.79 60.7765 1720.79 79.8093 1708.42 90.9023L1698.97 99.377Z" fill="#00BCD4"/>
<path opacity="0.0535017" fill-rule="evenodd" clip-rule="evenodd" d="M1714.57 70.9873C1707.19 77.6392 1695.81 77.0427 1689.15 69.655L1676.75 55.8739C1670.09 48.4862 1670.69 37.1048 1678.08 30.4529L1691.86 18.0444C1699.25 11.3924 1710.63 11.9889 1717.28 19.3766L1729.69 33.1577C1736.34 40.5454 1735.74 51.9268 1728.36 58.5787L1714.57 70.9873Z" fill="#F46A6A"/>
<path opacity="0.05" fill-rule="evenodd" clip-rule="evenodd" d="M681.973 101.488C669.673 112.52 650.768 111.529 639.688 99.2717L631.196 89.8779C620.055 77.5527 621.052 58.5199 633.421 47.4269L642.87 38.9522C655.171 27.9203 674.076 28.9111 685.156 41.1683L693.647 50.5621C704.788 62.8872 703.791 81.92 691.422 93.0131L681.973 101.488Z" fill="#F46A6A"/>
<path opacity="0.0535017" fill-rule="evenodd" clip-rule="evenodd" d="M669.874 69.9873C662.486 76.6392 651.105 76.0427 644.453 68.655L632.044 54.8739C625.392 47.4862 625.989 36.1048 633.377 29.4529L647.158 17.0444C654.545 10.3924 665.927 10.9889 672.579 18.3766L684.987 32.1577C691.639 39.5454 691.043 50.9268 683.655 57.5787L669.874 69.9873Z" fill="#00BCD4"/>
<path opacity="0.05" fill-rule="evenodd" clip-rule="evenodd" d="M1116.97 96.4878C1104.67 107.52 1085.77 106.529 1074.69 94.2717L1066.2 84.8779C1055.05 72.5527 1056.05 53.5199 1068.42 42.4269L1077.87 33.9522C1090.17 22.9203 1109.08 23.9111 1120.16 36.1683L1128.65 45.5621C1139.79 57.8872 1138.79 76.92 1126.42 88.0131L1116.97 96.4878Z" fill="#F46A6A"/>
<path opacity="0.0535017" fill-rule="evenodd" clip-rule="evenodd" d="M1104.87 64.9873C1097.49 71.6392 1086.1 71.0427 1079.45 63.655L1067.04 49.8739C1060.39 42.4862 1060.99 31.1048 1068.38 24.4529L1082.16 12.0444C1089.55 5.39244 1100.93 5.98891 1107.58 13.3766L1119.99 27.1577C1126.64 34.5454 1126.04 45.9268 1118.66 52.5787L1104.87 64.9873Z" fill="#00BCD4"/>
<path opacity="0.07" fill-rule="evenodd" clip-rule="evenodd" d="M859.973 91.4878C847.673 102.52 828.768 101.529 817.688 89.2717L809.196 79.8779C798.055 67.5527 799.052 48.5199 811.421 37.4269L820.87 28.9522C833.171 17.9203 852.076 18.9111 863.156 31.1683L871.647 40.5621C882.788 52.8872 881.791 71.92 869.422 83.0131L859.973 91.4878Z" fill="#00BCD4"/>
<path opacity="0.0535017" fill-rule="evenodd" clip-rule="evenodd" d="M873.874 110.987C866.486 117.639 855.105 117.043 848.453 109.655L836.044 95.8739C829.392 88.4862 829.989 77.1048 837.377 70.4529L851.158 58.0443C858.545 51.3924 869.927 51.9889 876.579 59.3766L888.987 73.1577C895.639 80.5454 895.043 91.9267 887.655 98.5787L873.874 110.987Z" fill="#00BCD4"/>
<path opacity="0.05" fill-rule="evenodd" clip-rule="evenodd" d="M1967.85 129.847C1955.55 140.878 1936.64 139.888 1925.56 127.63L1917.07 118.237C1905.93 105.912 1906.93 86.8787 1919.29 75.7857L1928.74 67.311C1941.04 56.2791 1959.95 57.2699 1971.03 69.527L1979.52 78.9209C1990.66 91.246 1989.66 110.279 1977.3 121.372L1967.85 129.847Z" fill="#00BCD4"/>
<path opacity="0.0535017" fill-rule="evenodd" clip-rule="evenodd" d="M1937.87 92.9873C1930.49 99.6392 1919.1 99.0427 1912.45 91.655L1900.04 77.8739C1893.39 70.4862 1893.99 59.1048 1901.38 52.4529L1915.16 40.0444C1922.55 33.3924 1933.93 33.9889 1940.58 41.3766L1952.99 55.1577C1959.64 62.5454 1959.04 73.9268 1951.66 80.5787L1937.87 92.9873Z" fill="#2196F3"/>
<path opacity="0.05" fill-rule="evenodd" clip-rule="evenodd" d="M2153.97 101.377C2141.67 112.409 2122.77 111.418 2111.69 99.161L2103.2 89.7671C2092.05 77.442 2093.05 58.4092 2105.42 47.3162L2114.87 38.8415C2127.17 27.8096 2146.08 28.8004 2157.16 41.0576L2165.65 50.4514C2176.79 62.7765 2175.79 81.8093 2163.42 92.9023L2153.97 101.377Z" fill="#00BCD4"/>
<path opacity="0.0535017" fill-rule="evenodd" clip-rule="evenodd" d="M2169.57 72.9873C2162.19 79.6392 2150.81 79.0427 2144.15 71.655L2131.75 57.8739C2125.09 50.4862 2125.69 39.1048 2133.08 32.4529L2146.86 20.0444C2154.25 13.3924 2165.63 13.9889 2172.28 21.3766L2184.69 35.1577C2191.34 42.5454 2190.74 53.9268 2183.36 60.5787L2169.57 72.9873Z" fill="#F46A6A"/>
<path opacity="0.05" fill-rule="evenodd" clip-rule="evenodd" d="M70.9732 101.377C58.6728 112.409 39.7676 111.418 28.6878 99.161L20.1962 89.7671C9.05494 77.442 10.0524 58.4092 22.421 47.3162L31.8701 38.8415C44.1705 27.8096 63.0757 28.8004 74.1555 41.0576L82.6471 50.4514C93.7883 62.7765 92.7909 81.8093 80.4223 92.9023L70.9732 101.377Z" fill="#00BCD4"/>
<path opacity="0.0535017" fill-rule="evenodd" clip-rule="evenodd" d="M86.5748 72.9873C79.1871 79.6392 67.8058 79.0427 61.1539 71.655L48.7453 57.8739C42.0934 50.4862 42.6898 39.1048 50.0775 32.4529L63.8587 20.0444C71.2464 13.3924 82.6277 13.9889 89.2796 21.3766L101.688 35.1577C108.34 42.5454 107.744 53.9268 100.356 60.5787L86.5748 72.9873Z" fill="#F46A6A"/>
<path opacity="0.05" fill-rule="evenodd" clip-rule="evenodd" d="M339.846 131.847C327.546 142.878 308.64 141.888 297.561 129.63L289.069 120.237C277.928 107.912 278.925 88.8787 291.294 77.7857L300.743 69.311C313.043 58.2791 331.948 59.2699 343.028 71.527L351.52 80.9209C362.661 93.246 361.664 112.279 349.295 123.372L339.846 131.847Z" fill="#00BCD4"/>
<path opacity="0.0535017" fill-rule="evenodd" clip-rule="evenodd" d="M309.874 94.9873C302.486 101.639 291.105 101.043 284.453 93.655L272.044 79.8739C265.392 72.4862 265.989 61.1048 273.377 54.4529L287.158 42.0444C294.545 35.3924 305.927 35.9889 312.579 43.3766L324.987 57.1577C331.639 64.5454 331.043 75.9268 323.655 82.5787L309.874 94.9873Z" fill="#2196F3"/>
<path opacity="0.05" fill-rule="evenodd" clip-rule="evenodd" d="M525.973 103.377C513.673 114.409 494.768 113.418 483.688 101.161L475.196 91.7671C464.055 79.442 465.052 60.4092 477.421 49.3162L486.87 40.8415C499.171 29.8096 518.076 30.8004 529.156 43.0576L537.647 52.4514C548.788 64.7765 547.791 83.8093 535.422 94.9023L525.973 103.377Z" fill="#00BCD4"/>
<path opacity="0.0535017" fill-rule="evenodd" clip-rule="evenodd" d="M541.575 74.9873C534.187 81.6392 522.806 81.0427 516.154 73.655L503.745 59.8739C497.093 52.4862 497.69 41.1048 505.078 34.4529L518.859 22.0444C526.246 15.3924 537.628 15.9889 544.28 23.3766L556.688 37.1577C563.34 44.5454 562.744 55.9268 555.356 62.5787L541.575 74.9873Z" fill="#F46A6A"/>
<path opacity="0.05" fill-rule="evenodd" clip-rule="evenodd" d="M2401.97 111.488C2389.67 122.52 2370.77 121.529 2359.69 109.272L2351.2 99.8779C2340.05 87.5527 2341.05 68.5199 2353.42 57.4269L2362.87 48.9522C2375.17 37.9203 2394.08 38.9111 2405.16 51.1683L2413.65 60.5621C2424.79 72.8872 2423.79 91.92 2411.42 103.013L2401.97 111.488Z" fill="#F46A6A"/>
<path opacity="0.0535017" fill-rule="evenodd" clip-rule="evenodd" d="M2389.87 79.9873C2382.49 86.6392 2371.1 86.0427 2364.45 78.655L2352.04 64.8739C2345.39 57.4862 2345.99 46.1048 2353.38 39.4529L2367.16 27.0444C2374.55 20.3924 2385.93 20.9889 2392.58 28.3766L2404.99 42.1577C2411.64 49.5454 2411.04 60.9268 2403.66 67.5787L2389.87 79.9873Z" fill="#00BCD4"/>
<path opacity="0.05" fill-rule="evenodd" clip-rule="evenodd" d="M2836.97 106.488C2824.67 117.52 2805.77 116.529 2794.69 104.272L2786.2 94.8779C2775.05 82.5527 2776.05 63.5199 2788.42 52.4269L2797.87 43.9522C2810.17 32.9203 2829.08 33.9111 2840.16 46.1683L2848.65 55.5621C2859.79 67.8872 2858.79 86.92 2846.42 98.0131L2836.97 106.488Z" fill="#F46A6A"/>
<path opacity="0.0535017" fill-rule="evenodd" clip-rule="evenodd" d="M2824.87 74.9873C2817.49 81.6392 2806.1 81.0427 2799.45 73.655L2787.04 59.8739C2780.39 52.4862 2780.99 41.1048 2788.38 34.4529L2802.16 22.0444C2809.55 15.3924 2820.93 15.9889 2827.58 23.3766L2839.99 37.1577C2846.64 44.5454 2846.04 55.9268 2838.66 62.5787L2824.87 74.9873Z" fill="#00BCD4"/>
<path opacity="0.07" fill-rule="evenodd" clip-rule="evenodd" d="M2579.97 101.488C2567.67 112.52 2548.77 111.529 2537.69 99.2717L2529.2 89.8779C2518.05 77.5527 2519.05 58.5199 2531.42 47.4269L2540.87 38.9522C2553.17 27.9203 2572.08 28.9111 2583.16 41.1683L2591.65 50.5621C2602.79 62.8872 2601.79 81.92 2589.42 93.0131L2579.97 101.488Z" fill="#00BCD4"/>
<path opacity="0.0535017" fill-rule="evenodd" clip-rule="evenodd" d="M2593.87 120.987C2586.49 127.639 2575.1 127.043 2568.45 119.655L2556.04 105.874C2549.39 98.4862 2549.99 87.1048 2557.38 80.4529L2571.16 68.0443C2578.55 61.3924 2589.93 61.9889 2596.58 69.3766L2608.99 83.1577C2615.64 90.5454 2615.04 101.927 2607.66 108.579L2593.87 120.987Z" fill="#00BCD4"/>
</svg>
