<svg width="672" height="247" viewBox="0 0 672 247" fill="none" xmlns="http://www.w3.org/2000/svg">
<path d="M201.644 32.7698C202.744 32.6739 203.714 33.4881 203.81 34.5885L220.602 227.18C220.698 228.281 219.884 229.251 218.783 229.347L196.599 231.281C195.499 231.377 194.529 230.563 194.433 229.462L182.634 94.134C182.447 91.9882 179.466 91.6138 178.754 93.6466L128.892 236.002C128.632 236.744 127.961 237.265 127.178 237.334L111.346 238.714C110.563 238.782 109.813 238.386 109.428 237.701L35.3674 105.84C34.3131 103.963 31.4441 104.848 31.6311 106.993L43.4568 242.626C43.5528 243.726 42.7385 244.696 41.6381 244.792L19.4538 246.726C18.3534 246.822 17.3836 246.008 17.2876 244.907L0.495701 52.3154C0.399758 51.215 1.21403 50.2451 2.31442 50.1492L27.2799 47.9725C28.0309 47.907 28.7548 48.2693 29.1526 48.9096L106.207 172.962C106.97 174.19 108.745 174.227 109.559 173.032L145.869 119.697C145.967 119.554 146.045 119.399 146.103 119.236L175.314 36.2446C175.574 35.504 176.244 34.9844 177.026 34.9162L201.644 32.7698Z" fill="url(#paint0_linear_241_549)" fill-opacity="0.04"/>
<path d="M356.203 219.369C337.606 220.99 320.268 218.208 304.188 211.024C288.091 203.649 274.869 192.685 264.521 178.131C254.348 163.371 248.419 146.332 246.735 127.015C245.051 107.698 247.949 89.9857 255.431 73.877C263.087 57.5622 274.213 44.4751 288.807 34.6157C303.385 24.567 319.972 18.7319 338.568 17.1105C357.356 15.4724 374.799 18.3405 390.896 25.7147C406.976 32.8996 420.094 43.7775 430.251 58.3484C440.407 72.9193 446.335 89.9578 448.036 109.464C449.737 128.97 446.847 146.778 439.365 162.886C431.884 178.995 420.854 192.074 406.276 202.123C391.682 211.982 374.991 217.731 356.203 219.369ZM354.246 196.927C368.241 195.707 380.518 191.393 391.076 183.984C401.826 176.559 376.2 169.539 381.486 157.056C386.964 144.557 422.662 127.514 421.292 111.796C419.905 95.8878 415.44 82.3473 407.898 71.174C400.531 59.7947 391.007 51.3703 379.327 45.9008C367.646 40.4314 354.712 38.3151 340.525 39.5521C326.338 40.789 313.965 45.1117 303.407 52.5202C292.849 59.9286 284.831 69.8825 279.353 82.3818C274.05 94.675 272.092 108.776 273.479 124.683C274.85 140.402 279.218 153.951 286.585 165.33C294.144 176.693 303.764 185.109 315.444 190.578C327.317 196.031 340.251 198.147 354.246 196.927Z" fill="url(#paint1_linear_241_549)" fill-opacity="0.04"/>
<path d="M630.367 55.4981C629.602 55.5649 628.867 55.1856 628.464 54.5317C621.969 44.0072 613.357 36.1668 602.63 31.0108C591.525 25.4912 578.974 23.3416 564.979 24.5618C550.984 25.782 538.611 30.1047 527.861 37.5298C517.287 44.7489 509.26 54.6081 503.782 67.1074C498.479 79.4006 496.505 93.3118 497.859 108.841C499.213 124.37 503.565 137.73 510.915 148.92C518.458 160.093 528.069 168.414 539.75 173.884C551.606 179.147 564.532 181.169 578.527 179.948C598.082 178.243 601.461 163.828 613.107 151.173C624.309 139 641.613 130.179 643.264 111.832C643.37 110.648 642.352 109.696 641.168 109.799L565.432 116.402C564.332 116.498 563.362 115.684 563.266 114.583L561.78 97.5471C561.684 96.4467 562.499 95.4769 563.599 95.3809L667.454 86.3259C668.555 86.2299 669.525 87.0442 669.62 88.1446L671.18 106.037C671.067 122.458 667.195 137.87 659.565 152.274C651.918 166.489 641.252 178.2 627.567 187.408C613.865 196.426 598.196 201.704 580.558 203.242C561.961 204.864 544.623 202.082 528.543 194.897C512.446 187.523 499.224 176.558 488.876 162.004C478.719 147.433 472.799 130.49 471.115 111.173C469.43 91.856 472.329 74.1432 479.81 58.0345C487.467 41.7197 498.593 28.6326 513.187 18.7732C527.764 8.72448 544.352 2.8894 562.948 1.268C584.228 -0.587428 603.471 2.98242 620.675 11.9775C637.231 20.5229 650.043 33.284 659.111 50.2609C659.775 51.5056 658.937 53.0071 657.532 53.1297L630.367 55.4981Z" fill="url(#paint2_linear_241_549)" fill-opacity="0.04"/>
<defs>
<linearGradient id="paint0_linear_241_549" x1="-3.05736e-06" y1="75.5" x2="564" y2="233.5" gradientUnits="userSpaceOnUse">
<stop stop-color="#723C9A"/>
<stop offset="1" stop-color="#794D9A" stop-opacity="0"/>
</linearGradient>
<linearGradient id="paint1_linear_241_549" x1="-3.05736e-06" y1="75.5" x2="564" y2="233.5" gradientUnits="userSpaceOnUse">
<stop stop-color="#723C9A"/>
<stop offset="1" stop-color="#794D9A" stop-opacity="0"/>
</linearGradient>
<linearGradient id="paint2_linear_241_549" x1="-3.05736e-06" y1="75.5" x2="564" y2="233.5" gradientUnits="userSpaceOnUse">
<stop stop-color="#723C9A"/>
<stop offset="1" stop-color="#794D9A" stop-opacity="0"/>
</linearGradient>
</defs>
</svg>
