<svg width="933" height="551" viewBox="0 0 933 551" fill="none" xmlns="http://www.w3.org/2000/svg">
<path d="M265.705 191.384C266.738 190.991 267.893 191.511 268.285 192.543L365.249 447.938C365.641 448.971 365.122 450.126 364.089 450.518L333.369 462.181C332.336 462.573 331.181 462.054 330.789 461.022L261.44 278.362C260.675 276.348 257.704 276.8 257.574 278.951L244.481 494.669C244.433 495.454 243.93 496.138 243.194 496.417L221.374 504.702C220.639 504.981 219.809 504.803 219.252 504.249L65.765 351.322C64.2396 349.802 61.7193 351.435 62.4836 353.448L131.982 536.501C132.374 537.534 131.855 538.689 130.822 539.081L100.102 550.744C99.0691 551.136 97.9142 550.617 97.5221 549.584L0.558129 294.189C0.166071 293.157 0.685374 292.002 1.71802 291.61L35.8094 278.666C36.5145 278.399 37.3101 278.55 37.8672 279.059L190.67 418.449C191.739 419.424 193.458 418.976 193.915 417.603L222.951 330.368C223.006 330.204 223.039 330.034 223.05 329.861L230.763 205.907C230.812 205.123 231.315 204.44 232.049 204.161L265.705 191.384Z" fill="url(#paint0_linear_241_547)" fill-opacity="0.03"/>
<path d="M545.058 384.81C520.57 394.107 496.095 396.973 471.634 393.406C447.077 389.59 425.028 379.824 405.485 364.107C386.1 348.045 371.574 327.282 361.906 301.818C352.238 276.354 349.372 251.307 353.308 226.676C357.401 201.7 367.413 179.761 383.344 160.859C399.18 141.708 419.342 127.483 443.83 118.186C468.571 108.793 493.219 106.005 517.775 109.821C542.237 113.387 564.113 123.077 583.403 138.889C602.693 154.702 617.219 175.465 626.982 201.178C636.744 226.892 639.658 252.064 635.722 276.695C631.787 301.325 621.901 323.216 606.065 342.368C590.134 361.27 569.798 375.417 545.058 384.81ZM533.826 355.227C552.255 348.23 567.179 337.708 578.599 323.661C590.271 309.518 552.984 309.821 555.343 290.931C557.955 271.944 599.632 235.27 591.765 214.549C583.803 193.579 572.592 176.984 558.132 164.764C543.83 152.2 527.747 144.453 509.882 141.524C492.017 138.595 473.744 140.677 455.062 147.769C436.381 154.862 421.33 165.432 409.91 179.479C398.491 193.526 391.475 210.043 388.862 229.03C386.408 247.671 389.162 267.477 397.123 288.447C404.99 309.168 416.075 325.811 430.377 338.376C444.932 350.845 461.141 358.544 479.006 361.472C497.124 364.306 515.397 362.224 533.826 355.227Z" fill="url(#paint1_linear_241_547)" fill-opacity="0.03"/>
<path d="M852.033 58.7511C851.314 59.024 850.503 58.8588 849.939 58.3362C837.052 46.3924 822.301 38.9716 805.684 36.0738C788.576 32.8574 770.808 34.7477 752.379 41.7445C733.95 48.7413 718.899 59.3112 707.227 73.4542C695.712 87.2517 688.649 103.644 686.037 122.63C683.582 141.272 686.241 160.828 694.013 181.299C701.786 201.77 712.775 218.163 726.983 230.478C741.443 242.698 757.605 250.272 775.47 253.201C793.493 255.784 811.718 253.577 830.147 246.581C855.898 236.804 854.943 216.03 865.823 194.475C876.409 173.503 896.738 154.781 891.305 128.897C891.061 127.733 889.824 127.094 888.712 127.516L787.39 165.984C786.357 166.377 785.202 165.857 784.81 164.825L775.709 140.853C775.317 139.821 775.836 138.666 776.869 138.274L915.134 85.7793C916.167 85.3872 917.322 85.9065 917.714 86.9392L926.956 111.282C933.088 133.519 933.759 155.829 928.971 178.213C924.087 200.347 914.169 220.25 899.216 237.924C884.168 255.348 865.031 268.469 841.806 277.287C817.318 286.584 792.843 289.45 768.381 285.883C743.825 282.067 721.776 272.301 702.233 256.584C682.943 240.772 668.464 220.134 658.796 194.669C649.128 169.205 646.262 144.158 650.198 119.528C654.291 94.5518 664.303 72.6128 680.234 53.7109C696.07 34.5593 716.233 20.335 740.72 11.0378C768.743 0.398767 796.09 -2.12894 822.761 3.45468C848.763 8.75443 871.22 21.3936 890.133 41.3722C891.103 42.3967 890.705 44.0688 889.386 44.5696L852.033 58.7511Z" fill="url(#paint2_linear_241_547)" fill-opacity="0.03"/>
<defs>
<linearGradient id="paint0_linear_241_547" x1="433.19" y1="122.226" x2="939.5" y2="155.5" gradientUnits="userSpaceOnUse">
<stop stop-color="#794D9A"/>
<stop offset="1" stop-color="#794D9A" stop-opacity="0.21"/>
</linearGradient>
<linearGradient id="paint1_linear_241_547" x1="433.19" y1="122.226" x2="939.5" y2="155.5" gradientUnits="userSpaceOnUse">
<stop stop-color="#794D9A"/>
<stop offset="1" stop-color="#794D9A" stop-opacity="0.21"/>
</linearGradient>
<linearGradient id="paint2_linear_241_547" x1="433.19" y1="122.226" x2="939.5" y2="155.5" gradientUnits="userSpaceOnUse">
<stop stop-color="#794D9A"/>
<stop offset="1" stop-color="#794D9A" stop-opacity="0.21"/>
</linearGradient>
</defs>
</svg>
