<svg width="556" height="329" viewBox="0 0 556 329" fill="none" xmlns="http://www.w3.org/2000/svg">
<path d="M157.633 114.837C158.666 114.445 159.821 114.964 160.213 115.997L217.37 266.544C217.762 267.577 217.242 268.732 216.21 269.124L199.432 275.494C198.4 275.886 197.245 275.366 196.853 274.334L157.186 169.856C156.422 167.842 153.451 168.294 153.32 170.444L145.784 294.602C145.737 295.387 145.233 296.071 144.498 296.35L132.483 300.912C131.749 301.191 130.919 301.013 130.362 300.459L42.0077 212.427C40.4822 210.907 37.962 212.541 38.7263 214.554L78.4846 319.274C78.8766 320.306 78.3573 321.461 77.3247 321.853L60.5471 328.223C59.5145 328.615 58.3595 328.096 57.9674 327.063L0.810314 176.516C0.418255 175.484 0.937558 174.329 1.97021 173.937L21.0464 166.694C21.7514 166.426 22.547 166.578 23.1041 167.086L112.794 248.903C113.863 249.879 115.583 249.431 116.04 248.058L132.901 197.4C132.955 197.236 132.989 197.066 132.999 196.893L137.553 123.718C137.601 122.934 138.105 122.251 138.839 121.973L157.633 114.837Z" fill="url(#paint0_linear_241_548)" fill-opacity="0.03"/>
<path d="M324.714 229.715C310.134 235.25 295.562 236.956 280.998 234.833C266.377 232.561 253.249 226.746 241.613 217.388C230.072 207.825 221.423 195.463 215.667 180.302C209.911 165.141 208.204 150.228 210.547 135.563C212.984 120.692 218.945 107.63 228.431 96.3761C237.86 84.9734 249.864 76.5043 264.444 70.9689C279.174 65.3763 293.849 63.7161 308.47 65.9881C323.034 68.1115 336.059 73.8806 347.544 83.2952C359.029 92.7098 367.678 105.072 373.491 120.382C379.303 135.691 381.038 150.679 378.695 165.344C376.352 180.008 370.466 193.042 361.037 204.445C351.552 215.699 339.444 224.122 324.714 229.715ZM318.026 212.101C328.999 207.935 337.885 201.67 344.684 193.307C351.634 184.886 329.433 185.067 330.838 173.819C332.393 162.515 357.207 140.68 352.523 128.343C347.782 115.857 341.108 105.976 332.498 98.7012C323.983 91.2202 314.407 86.6077 303.77 84.8639C293.134 83.12 282.254 84.3596 271.131 88.5825C260.008 92.8054 251.047 99.0987 244.248 107.462C237.449 115.826 233.272 125.66 231.716 136.964C230.255 148.063 231.894 159.855 236.635 172.341C241.319 184.678 247.918 194.587 256.434 202.068C265.099 209.492 274.751 214.076 285.387 215.82C296.174 217.506 307.054 216.267 318.026 212.101Z" fill="url(#paint1_linear_241_548)" fill-opacity="0.03"/>
<path d="M507.96 35.4011C507.241 35.674 506.431 35.5082 505.863 34.9904C498.279 28.0807 489.621 23.7772 479.888 22.0799C469.703 20.1648 459.123 21.2903 448.151 25.4561C437.178 29.622 428.217 35.9152 421.268 44.3359C414.412 52.5508 410.207 62.3105 408.652 73.615C407.19 84.7138 408.773 96.3573 413.401 108.546C418.028 120.734 424.571 130.494 433.03 137.827C441.64 145.102 451.263 149.612 461.899 151.355C472.63 152.894 483.481 151.58 494.454 147.414C509.785 141.593 509.217 129.224 515.695 116.391C521.876 104.145 533.637 93.1872 531.037 78.2324C530.833 77.0612 529.593 76.4214 528.481 76.8433L469.753 99.1404C468.72 99.5324 467.565 99.0131 467.173 97.9805L462.329 85.2212C461.937 84.1886 462.456 83.0336 463.489 82.6415L544.298 51.9613C545.33 51.5693 546.485 52.0886 546.877 53.1212L552.093 66.8585C555.744 80.0979 556.143 93.3811 553.292 106.708C550.385 119.886 544.48 131.737 535.577 142.26C526.617 152.634 515.223 160.446 501.395 165.696C486.815 171.232 472.243 172.938 457.679 170.814C443.058 168.542 429.93 162.728 418.295 153.37C406.809 143.955 398.189 131.668 392.433 116.506C386.677 101.345 384.97 86.4324 387.313 71.7677C389.75 56.8972 395.711 43.8349 405.197 32.5809C414.625 21.1782 426.63 12.7091 441.21 7.17362C457.894 0.83923 474.176 -0.665746 490.056 2.6587C505.162 5.73756 518.258 12.9768 529.346 24.3763C530.329 25.3877 529.931 27.0594 528.612 27.5602L507.96 35.4011Z" fill="url(#paint2_linear_241_548)" fill-opacity="0.03"/>
<defs>
<linearGradient id="paint0_linear_241_548" x1="459.5" y1="28.5" x2="-196" y2="297" gradientUnits="userSpaceOnUse">
<stop stop-color="#6E3698"/>
<stop offset="1" stop-color="#794D9A" stop-opacity="0"/>
</linearGradient>
<linearGradient id="paint1_linear_241_548" x1="459.5" y1="28.5" x2="-196" y2="297" gradientUnits="userSpaceOnUse">
<stop stop-color="#6E3698"/>
<stop offset="1" stop-color="#794D9A" stop-opacity="0"/>
</linearGradient>
<linearGradient id="paint2_linear_241_548" x1="459.5" y1="28.5" x2="-196" y2="297" gradientUnits="userSpaceOnUse">
<stop stop-color="#6E3698"/>
<stop offset="1" stop-color="#794D9A" stop-opacity="0"/>
</linearGradient>
</defs>
</svg>
